<?xml version="1.0" encoding="UTF-8" standalone="no"?>
<!-- Created with Inkscape (http://www.inkscape.org/) -->

<svg
   xmlns:dc="http://purl.org/dc/elements/1.1/"
   xmlns:cc="http://creativecommons.org/ns#"
   xmlns:rdf="http://www.w3.org/1999/02/22-rdf-syntax-ns#"
   xmlns:svg="http://www.w3.org/2000/svg"
   xmlns="http://www.w3.org/2000/svg"
   xmlns:sodipodi="http://sodipodi.sourceforge.net/DTD/sodipodi-0.dtd"
   xmlns:inkscape="http://www.inkscape.org/namespaces/inkscape"
   version="1.0"
   width="720"
   height="505"
   viewBox="0 0 576 432"
   id="svg1"
   sodipodi:docname="Series_RC_capacitor_voltage-dark.svg"
   inkscape:version="0.92.2 5c3e80d, 2017-08-06">
  <metadata
     id="metadata54">
    <rdf:RDF>
      <cc:Work
         rdf:about="">
        <dc:format>image/svg+xml</dc:format>
        <dc:type
           rdf:resource="http://purl.org/dc/dcmitype/StillImage" />
        <dc:title></dc:title>
      </cc:Work>
    </rdf:RDF>
  </metadata>
  <sodipodi:namedview
     pagecolor="#ffffff"
     bordercolor="#666666"
     borderopacity="1"
     objecttolerance="10"
     gridtolerance="10"
     guidetolerance="10"
     inkscape:pageopacity="0"
     inkscape:pageshadow="2"
     inkscape:window-width="1205"
     inkscape:window-height="788"
     id="namedview52"
     showgrid="false"
     inkscape:zoom="0.68157237"
     inkscape:cx="392.29313"
     inkscape:cy="241.20916"
     inkscape:window-x="0"
     inkscape:window-y="0"
     inkscape:window-maximized="0"
     inkscape:current-layer="svg1" />
  <defs
     id="defs111" />
  <polygon
     id="polygon7"
     style="fill:#000000;fill-opacity:0.39215686;stroke:none;stroke-width:3;stroke-linecap:square;stroke-linejoin:miter;stroke-miterlimit:4;stroke-dasharray:none"
     points="72,388.8 72,43.2 518.4,43.2 518.4,388.8 "
     transform="matrix(1.061979,0,0,1.061979,-19.5793,-28.69041)" />
  <g
     id="g4629"
     style="stroke:#494949;stroke-opacity:1">
    <path
       d="M 151.69667,384.20703 V 17.187083"
       style="fill:none;stroke:#494949;stroke-width:3.18593693;stroke-linecap:square;stroke-linejoin:miter;stroke-miterlimit:4;stroke-dasharray:none;stroke-opacity:1"
       id="path19"
       inkscape:connector-curvature="0" />
    <path
       d="M 246.51016,384.20703 V 17.187083"
       style="fill:none;stroke:#494949;stroke-width:3.18593693;stroke-linecap:square;stroke-linejoin:miter;stroke-miterlimit:4;stroke-dasharray:none;stroke-opacity:1"
       id="path28"
       inkscape:connector-curvature="0" />
    <path
       d="M 341.32364,384.20703 V 17.187083"
       style="fill:none;stroke:#494949;stroke-width:3.18593693;stroke-linecap:square;stroke-linejoin:miter;stroke-miterlimit:4;stroke-dasharray:none;stroke-opacity:1"
       id="path37"
       inkscape:connector-curvature="0" />
    <path
       d="M 436.13713,384.20703 V 17.187083"
       style="fill:none;stroke:#494949;stroke-width:3.18593693;stroke-linecap:square;stroke-linejoin:miter;stroke-miterlimit:4;stroke-dasharray:none;stroke-opacity:1"
       id="path46"
       inkscape:connector-curvature="0" />
    <path
       d="M 56.883188,150.62376 H 530.95061"
       style="fill:none;stroke:#494949;stroke-width:3.18593693;stroke-linecap:square;stroke-linejoin:miter;stroke-miterlimit:4;stroke-dasharray:none;stroke-opacity:1"
       id="path1413"
       inkscape:connector-curvature="0" />
    <path
       d="M 56.883188,64.581153 H 530.95061"
       style="fill:none;stroke:#494949;stroke-width:3.18593693;stroke-linecap:square;stroke-linejoin:miter;stroke-miterlimit:4;stroke-dasharray:none;stroke-opacity:1"
       id="path68"
       inkscape:connector-curvature="0" />
    <path
       d="M 56.883188,33.17283 H 530.95061"
       style="fill:none;stroke:#494949;stroke-width:3.18593693;stroke-linecap:square;stroke-linejoin:miter;stroke-miterlimit:4;stroke-dasharray:none;stroke-opacity:1"
       id="path77"
       inkscape:connector-curvature="0" />
    <path
       d="M 56.883188,21.348521 H 530.95061"
       style="fill:none;stroke:#494949;stroke-width:3.18593693;stroke-linecap:square;stroke-linejoin:miter;stroke-miterlimit:4;stroke-dasharray:none;stroke-opacity:1"
       id="path86"
       inkscape:connector-curvature="0" />
  </g>
  <g
     id="xtick1"
     transform="matrix(1.061979,0,0,1.061979,-19.5793,-24.442494)"
     style="stroke:none;stroke-opacity:1;fill:#fcffff;fill-opacity:1">
    <text
       id="text11"
       style="font-size:20px;font-family:'Times New Roman';fill:#fcffff;stroke:none;stroke-opacity:1;fill-opacity:1"
       y="401.79999"
       x="68.796875">0</text>
  </g>
  <text
     id="text25"
     style="font-size:21.23958015px;font-family:'Times New Roman';fill:#ffffff;stroke-width:1.06197906;stroke:none;stroke-opacity:1;fill-opacity:1;"
     y="402.26065"
     x="146.91777">τ</text>
  <path
     inkscape:connector-curvature="0"
     id="path30"
     style="fill:#a9ffff;fill-opacity:1;stroke:#fcfffe;stroke-width:3.18593693;stroke-linecap:square;stroke-linejoin:miter;stroke-miterlimit:4;stroke-dasharray:none;stroke-opacity:1"
     d="m 246.51016,384.20703 v -5.3099" />
  <text
     id="text34"
     style="font-size:21.23958015px;font-family:'Times New Roman';fill:#ffffff;stroke-width:1.06197906;stroke:none;stroke-opacity:1;fill-opacity:1;"
     y="402.26065"
     x="237.48334">2τ</text>
  <path
     inkscape:connector-curvature="0"
     id="path39"
     style="fill:#a9ffff;stroke:#fcfffe;stroke-width:3.18593693;stroke-linecap:square;stroke-linejoin:miter;stroke-miterlimit:4;stroke-dasharray:none;stroke-opacity:1;fill-opacity:1"
     d="m 341.32364,384.20703 v -5.3099" />
  <text
     id="text43"
     style="font-size:21.23958015px;font-family:'Times New Roman';fill:#faffff;stroke-width:1.06197906;stroke:none;stroke-opacity:1;fill-opacity:1;"
     y="402.26065"
     x="332.29681">3τ</text>
  <path
     inkscape:connector-curvature="0"
     id="path48"
     style="fill:#a9ffff;stroke:#fcfffe;stroke-width:3.18593693;stroke-linecap:square;stroke-linejoin:miter;stroke-miterlimit:4;stroke-dasharray:none;stroke-opacity:1;fill-opacity:1"
     d="m 436.13713,384.20703 v -5.3099" />
  <text
     id="text52"
     style="font-size:21.23958015px;font-family:'Times New Roman';fill:#f7ffff;stroke-width:1.06197906;stroke:none;stroke-opacity:1;fill-opacity:1;"
     y="402.26065"
     x="426.73694">4τ</text>
  <g
     id="xtick6"
     transform="matrix(1.061979,0,0,1.061979,-19.5793,-24.442494)"
     style="stroke:none;stroke-opacity:1;fill:#ffffff;fill-opacity:1">
    <text
       id="text55"
       style="font-size:20px;font-family:'Times New Roman';fill:#ffffff;stroke:none;stroke-opacity:1;fill-opacity:1"
       y="401.79999"
       x="509.89999">5τ</text>
  </g>
  <text
     id="text57"
     style="font-size:21.23958015px;font-family:'Times New Roman';fill:#ffffff;stroke-width:1.06197906;stroke:none;stroke-opacity:1;fill-opacity:1;"
     y="423.50024"
     x="277.24054">Time</text>
  <path
     inkscape:connector-curvature="0"
     id="path61"
     style="fill:none;stroke:#ffffff;stroke-width:3.18593693;stroke-linecap:square;stroke-linejoin:miter;stroke-miterlimit:4;stroke-dasharray:none;stroke-opacity:1"
     d="m 56.883188,150.67691 h 5.309895" />
  <path
     inkscape:connector-curvature="0"
     id="path63"
     style="fill:none;stroke:#ffffff;stroke-width:3.18593693;stroke-linecap:square;stroke-linejoin:miter;stroke-miterlimit:4;stroke-dasharray:none;stroke-opacity:1"
     d="m 525.64072,150.67691 h 5.30989" />
  <text
     id="text65"
     style="font-size:21.23958015px;font-family:'Times New Roman';fill:#ffffff;stroke-width:1.06197906;fill-opacity:1;"
     y="155.9868"
     x="-0.89510697">63.2%</text>
  <g
     id="ytick2"
     transform="matrix(1.061979,0,0,1.061979,-19.5793,-28.69041)"
     style="fill:#fffff4;fill-opacity:1">
    <path
       inkscape:connector-curvature="0"
       id="path70"
       style="opacity:1;fill:#fffff4;stroke:#000000;stroke-width:0.5;stroke-linecap:butt;stroke-linejoin:miter;fill-opacity:1"
       d="m 72,87.828067 h 5" />
    <path
       inkscape:connector-curvature="0"
       id="path72"
       style="opacity:1;fill:#fffff4;stroke:#000000;stroke-width:0.5;stroke-linecap:butt;stroke-linejoin:miter;fill-opacity:1"
       d="m 513.4,87.828067 h 5" />
    <text
       id="text74"
       style="font-size:20px;font-family:'Times New Roman';fill:#fffff4;fill-opacity:1"
       y="92.828064"
       x="520.59375">86.5%</text>
  </g>
  <path
     inkscape:connector-curvature="0"
     id="path79"
     style="fill:none;stroke:#ffffff;stroke-width:3.18593693;stroke-linecap:square;stroke-linejoin:miter;stroke-miterlimit:4;stroke-dasharray:none;stroke-opacity:1"
     d="m 56.883188,33.17283 h 5.309895" />
  <path
     inkscape:connector-curvature="0"
     id="path81"
     style="fill:none;stroke:#ffffff;stroke-width:3.18593693;stroke-linecap:square;stroke-linejoin:miter;stroke-miterlimit:4;stroke-dasharray:none;stroke-opacity:1"
     d="m 525.64072,33.17283 h 5.30989" />
  <text
     id="text83"
     style="font-size:21.23958015px;font-family:'Times New Roman';fill:#ffffff;stroke-width:1.06197906;fill-opacity:1;"
     y="38.482723"
     x="-0.89510697">95.0%</text>
  <path
     inkscape:connector-curvature="0"
     id="path88"
     style="fill:none;stroke:#ffffff;stroke-width:3.18593693;stroke-linecap:square;stroke-linejoin:miter;stroke-miterlimit:4;stroke-dasharray:none;stroke-opacity:1"
     d="m 56.883188,21.348521 h 5.309895" />
  <path
     inkscape:connector-curvature="0"
     id="path90"
     style="fill:none;stroke:#ffffff;stroke-width:3.18593693;stroke-linecap:square;stroke-linejoin:miter;stroke-miterlimit:4;stroke-dasharray:none;stroke-opacity:1"
     d="m 525.64072,21.348521 h 5.30989" />
  <text
     id="text92"
     style="font-size:21.23958015px;font-family:'Times New Roman';fill:#fffff4;stroke-width:1.06197906;fill-opacity:1;"
     y="26.658415"
     x="533.28033">98.2%</text>
  <path
     inkscape:connector-curvature="0"
     id="path95"
     style="fill:none;stroke:#d7d7d7;stroke-width:3.18593693;stroke-linecap:square;stroke-linejoin:miter;stroke-miterlimit:4;stroke-dasharray:none"
     d="M 56.883188,17.283914 H 530.95061" />
  <path
     inkscape:connector-curvature="0"
     id="path23"
     style="fill:none;stroke:#ffffff;stroke-width:3.18593693;stroke-linecap:square;stroke-linejoin:miter;stroke-miterlimit:4;stroke-dasharray:none;stroke-opacity:1"
     d="M 151.69667,22.496978 V 17.187083" />
  <path
     inkscape:connector-curvature="0"
     id="path32"
     style="fill:none;stroke:#ffffff;stroke-width:3.18593693;stroke-linecap:square;stroke-linejoin:miter;stroke-miterlimit:4;stroke-dasharray:none;stroke-opacity:1"
     d="M 246.51016,22.496978 V 17.187083" />
  <path
     inkscape:connector-curvature="0"
     id="path41"
     style="fill:none;stroke:#ffffff;stroke-width:3.18593693;stroke-linecap:square;stroke-linejoin:miter;stroke-miterlimit:4;stroke-dasharray:none;stroke-opacity:1"
     d="M 341.32364,22.496978 V 17.187083" />
  <path
     inkscape:connector-curvature="0"
     id="path50"
     style="fill:none;stroke:#000000;stroke-width:3.18593693;stroke-linecap:square;stroke-linejoin:miter;stroke-miterlimit:4;stroke-dasharray:none"
     d="M 436.13713,22.496978 V 17.187083" />
  <path
     inkscape:connector-curvature="0"
     id="path97"
     style="fill:none;stroke:#000000;stroke-width:3.18593693;stroke-linecap:square;stroke-linejoin:miter;stroke-miterlimit:4;stroke-dasharray:none"
     d="m 56.883188,17.283914 h 5.309895" />
  <path
     inkscape:connector-curvature="0"
     id="path99"
     style="fill:none;stroke:#000000;stroke-width:0.53098953;stroke-linecap:butt;stroke-linejoin:miter"
     d="m 525.64072,17.283914 h 5.30989" />
  <text
     id="text101"
     style="font-size:21.23958015px;font-family:'Times New Roman';fill:#ffffff;stroke-width:1.06197906;fill-opacity:1;"
     y="22.593809"
     x="-0.89510697">99.3%</text>
  <text
     id="text104"
     style="font-style:italic;font-size:18.85012817px;font-family:'Times New Roman';fill:#ffffff;stroke-width:1.06197906;fill-opacity:1;"
     transform="rotate(-90)"
     y="7.0697498"
     x="-197.02159">c</text>
  <text
     id="text106"
     style="font-style:italic;font-size:23.89452744px;font-family:'Times New Roman';fill:#ffffff;stroke-width:1.06197906;fill-opacity:1;"
     transform="rotate(-90)"
     y="4.4148021"
     x="-209.76535">V</text>
  <path
     inkscape:connector-curvature="0"
     id="path108"
     style="fill:none;stroke:#42affa;stroke-width:3.18593693;stroke-linecap:square;stroke-linejoin:miter;stroke-miterlimit:4;stroke-dasharray:none;stroke-opacity:1"
     d="m 57.316882,383.33963 0.04038,-0.97554 0.474067,-1.83374 0.474067,-1.82461 0.474068,-1.8155 0.474067,-1.80644 0.474068,-1.79743 0.474067,-1.78847 0.474068,-1.77956 0.474067,-1.77067 0.474067,-1.76184 0.474068,-1.75307 0.474067,-1.74431 0.474068,-1.73561 0.474067,-1.72695 0.474068,-1.71834 0.474067,-1.70978 0.474067,-1.70125 0.474068,-1.69275 0.474067,-1.68432 0.474068,-1.67592 0.474067,-1.66756 0.474068,-1.65924 0.474067,-1.65096 0.474067,-1.64273 0.474068,-1.63455 0.474067,-1.62639 0.474068,-1.61826 0.474067,-1.61021 0.474068,-1.60217 0.474067,-1.59418 0.474067,-1.58624 0.474068,-1.57831 0.474067,-1.57045 0.474068,-1.56262 0.474067,-1.55482 0.474068,-1.54706 0.474067,-1.53935 0.474067,-1.53168 0.474068,-1.52403 0.474067,-1.51643 0.474068,-1.50887 0.474067,-1.50135 0.474067,-1.49386 0.474068,-1.4864 0.474067,-1.47899 0.474068,-1.47162 0.474067,-1.46428 0.474068,-1.45697 0.474067,-1.44971 0.474067,-1.44247 0.474068,-1.43528 0.474067,-1.42812 0.474068,-1.421 0.474067,-1.41391 0.474068,-1.40686 0.474067,-1.39985 0.474067,-1.39286 0.474068,-1.38591 0.474067,-1.379 0.474068,-1.37213 0.474067,-1.36528 0.474068,-1.35848 0.474067,-1.35169 0.474067,-1.34496 0.474068,-1.33824 0.474067,-1.33157 0.474068,-1.32494 0.474067,-1.31832 0.474068,-1.31175 0.474067,-1.3052 0.474067,-1.2987 0.474068,-1.29222 0.474067,-1.28577 0.474068,-1.27937 0.474067,-1.27297 0.474068,-1.26663 0.474067,-1.26032 0.474067,-1.25402 0.474068,-1.24778 0.474067,-1.24154 0.474068,-1.23536 0.474067,-1.2292 0.474068,-1.22307 0.474067,-1.21697 0.474067,-1.2109 0.474068,-1.20484 0.474067,-1.19886 0.474068,-1.19286 0.474067,-1.18692 0.474067,-1.181 0.474068,-1.1751 0.47406,-1.16925 0.47407,-1.16342 0.47407,-1.15761 0.47407,-1.15185 0.47406,-1.1461 0.47407,-1.14037 0.47407,-1.13469 0.47407,-1.12904 0.47406,-1.1234 0.47407,-1.1178 0.47407,-1.11222 0.47407,-1.10667 0.47406,-1.10116 0.47407,-1.09566 0.47407,-1.0902 0.47407,-1.08476 0.47406,-1.07935 0.47407,-1.07397 0.47407,-1.06862 0.47407,-1.06327 0.47406,-1.05799 0.47407,-1.0527 0.47407,-1.04745 0.47407,-1.04223 0.47406,-1.03703 0.47407,-1.03186 0.47407,-1.02671 0.47406,-1.02159 0.47407,-1.01649 0.47407,-1.01142 0.47407,-1.00639 0.47406,-1.00136 0.47407,-0.99637 0.47407,-0.9914 0.47407,-0.98645 0.47406,-0.98153 0.47407,-0.97664 0.47407,-0.97176 0.47407,-0.96693 0.47406,-0.9621 0.47407,-0.9573 0.47407,-0.95252 0.47407,-0.94777 0.47406,-0.94305 0.47407,-0.93834 0.47407,-0.93366 0.47407,-0.92901 0.47406,-0.92438 0.47407,-0.91976 0.47407,-0.91517 0.47407,-0.91061 0.47406,-0.90607 0.47407,-0.90155 0.47407,-0.89705 0.47407,-0.89259 0.47406,-0.88813 0.47407,-0.88369 0.47407,-0.8793 0.47407,-0.8749 0.47406,-0.87054 0.47407,-0.8662 0.47407,-0.86188 0.47406,-0.85758 0.47407,-0.85331 0.47407,-0.84904 0.47407,-0.84482 0.47406,-0.8406 0.47407,-0.8364 0.47407,-0.83224 0.47407,-0.82809 0.47406,-0.82395 0.47407,-0.81985 0.47407,-0.81575 0.47407,-0.8117 0.47406,-0.80763 0.47407,-0.80361 0.47407,-0.79961 0.47407,-0.79561 0.47406,-0.79165 0.47407,-0.7877 0.47407,-0.78377 0.47407,-0.77986 0.47406,-0.77597 0.47407,-0.7721 0.47407,-0.76826 0.47407,-0.76441 0.47406,-0.76061 0.47407,-0.75681 0.47407,-0.75304 0.47407,-0.74928 0.47406,-0.74555 0.47407,-0.74182 0.47407,-0.73813 0.47406,-0.73444 0.47407,-0.73078 0.47407,-0.72715 0.47407,-0.72351 0.47406,-0.7199 0.47407,-0.71632 0.47407,-0.71273 0.47407,-0.70918 0.47406,-0.70566 0.47407,-0.70212 0.47407,-0.69863 0.47407,-0.69514 0.47406,-0.69167 0.47407,-0.68823 0.47407,-0.6848 0.47407,-0.68137 0.47406,-0.67798 0.47407,-0.67459 0.47407,-0.67123 0.47407,-0.66789 0.47406,-0.66456 0.47407,-0.66124 0.47407,-0.65794 0.47407,-0.65465 0.47406,-0.6514 0.47407,-0.64815 0.47407,-0.64492 0.47407,-0.64169 0.47406,-0.63849 0.47407,-0.63532 0.47407,-0.63214 0.47407,-0.62899 0.47406,-0.62586 0.47407,-0.62272 0.47407,-0.61963 0.47406,-0.61654 0.47407,-0.61346 0.47407,-0.6104 0.47407,-0.60736 0.47406,-0.60432 0.47407,-0.60131 0.47407,-0.59832 0.47407,-0.59532 0.47406,-0.59237 0.47407,-0.5894 0.47407,-0.58647 0.47407,-0.58355 0.47406,-0.58063 0.47407,-0.57773 0.47407,-0.57485 0.47407,-0.572 0.47406,-0.56913 0.47407,-0.56629 0.47407,-0.56348 0.47407,-0.56066 0.47406,-0.55785 0.47407,-0.55509 0.47407,-0.55231 0.47407,-0.54956 0.47406,-0.54682 0.47407,-0.54408 0.47407,-0.54139 0.47407,-0.53867 0.47406,-0.53599 0.47407,-0.53333 0.47407,-0.53065 0.47407,-0.52801 0.47406,-0.52537 0.47407,-0.52276 0.47407,-0.52015 0.47406,-0.51755 0.47407,-0.51498 0.47407,-0.5124 0.47407,-0.50986 0.47406,-0.50731 0.47407,-0.50477 0.47407,-0.50226 0.47407,-0.49975 0.47406,-0.49727 0.47407,-0.49477 0.47407,-0.49232 0.47407,-0.48985 0.47406,-0.48742 0.47407,-0.48499 0.47407,-0.48256 0.47407,-0.48016 0.47406,-0.47777 0.47407,-0.47537 0.47407,-0.47302 0.47407,-0.47064 0.47406,-0.4683 0.47407,-0.46597 0.47407,-0.46365 0.47407,-0.46133 0.47406,-0.45903 0.47407,-0.45674 0.47407,-0.45446 0.47407,-0.45219 0.47406,-0.44995 0.47407,-0.4477 0.47407,-0.44546 0.47406,-0.44324 0.47407,-0.44104 0.47407,-0.43883 0.47407,-0.43664 0.47406,-0.43447 0.47407,-0.43229 0.47407,-0.43014 0.47407,-0.428 0.47406,-0.425861 0.47407,-0.42374 0.47407,-0.42162 0.47407,-0.41952 0.47406,-0.41743 0.47407,-0.41536 0.47407,-0.41326 0.47407,-0.41122 0.47406,-0.40916 0.47407,-0.40713 0.47407,-0.4051 0.47407,-0.40307 0.47406,-0.40106 0.47407,-0.39906 0.47407,-0.39707 0.47407,-0.39509 0.47406,-0.39312 0.47407,-0.39116 0.47407,-0.38921 0.47407,-0.38727 0.47406,-0.38534 0.47407,-0.38341 0.47407,-0.3815 0.47407,-0.3796 0.47406,-0.37771 0.47407,-0.37582 0.47407,-0.37394 0.47406,-0.37209 0.47407,-0.37023 0.47407,-0.36838 0.47407,-0.36654 0.47406,-0.36471 0.47407,-0.3629 0.47407,-0.36109 0.47407,-0.35928 0.47406,-0.35749 0.47407,-0.35571 0.47407,-0.35394 0.47407,-0.35217 0.47406,-0.35042 0.47407,-0.34866 0.47407,-0.34692 0.47407,-0.3452 0.47406,-0.34348 0.47407,-0.341762 0.47407,-0.340057 0.47407,-0.338367 0.47406,-0.336669 0.47407,-0.335001 0.47407,-0.333324 0.47407,-0.331656 0.47406,-0.33001 0.47407,-0.328364 0.47407,-0.326717 0.47407,-0.325104 0.47406,-0.323468 0.47407,-0.321854 0.47407,-0.320261 0.47406,-0.318658 0.47407,-0.317064 0.47407,-0.315493 0.47407,-0.313909 0.47406,-0.312347 0.47407,-0.310789 0.47407,-0.30924 0.47407,-0.307697 0.47406,-0.306163 0.47407,-0.304635 0.47407,-0.303117 0.47407,-0.301604 0.47406,-0.300099 0.47407,-0.298604 0.47407,-0.297114 0.47407,-0.295632 0.47406,-0.294158 0.47407,-0.29269 0.47407,-0.291231 0.47407,-0.289778 0.47406,-0.288333 0.47407,-0.286896 0.47407,-0.285463 0.47407,-0.28404 0.47406,-0.282624 0.47407,-0.281213 0.47407,-0.279813 0.47407,-0.278416 0.47406,-0.277026 0.47407,-0.275645 0.47407,-0.274271 0.47407,-0.272904 0.47406,-0.271541 0.47407,-0.270188 0.47407,-0.26884 0.47406,-0.267499 0.47407,-0.266164 0.47407,-0.264838 0.47407,-0.263516 0.47406,-0.262203 0.47407,-0.260894 0.47407,-0.259593 0.47407,-0.258299 0.47406,-0.25701 0.47407,-0.255728 0.47407,-0.254454 0.47407,-0.253183 0.47406,-0.251922 0.47407,-0.250664 0.47407,-0.249414 0.47407,-0.248171 0.47406,-0.246932 0.47407,-0.245702 0.47407,-0.244475 0.47407,-0.243257 0.47406,-0.242043 0.47407,-0.240835 0.47407,-0.239636 0.47407,-0.238439 0.47406,-0.23725 0.47407,-0.236067 0.47407,-0.23489 0.47407,-0.233718 0.47406,-0.232552 0.47407,-0.231394 0.47407,-0.230238 0.47407,-0.22909 0.47406,-0.227947 0.47407,-0.226811 0.47407,-0.22568 0.47406,-0.224554 0.47407,-0.223434 0.47407,-0.222319 0.47407,-0.221211 0.47406,-0.220108 0.47407,-0.219009 0.47407,-0.217918 0.47407,-0.21683 0.47406,-0.215749 0.47407,-0.214673 0.47407,-0.213603 0.47407,-0.212536 0.47406,-0.211477 0.47407,-0.210423 0.47407,-0.209372 0.47407,-0.208328 0.47406,-0.20729 0.47407,-0.206256 0.47407,-0.205226 0.47407,-0.204204 0.47406,-0.203184 0.47407,-0.202172 0.47407,-0.201163 0.47407,-0.20016 0.47406,-0.199161 0.47407,-0.198168 0.47407,-0.19718 0.47407,-0.196196 0.47406,-0.195218 0.47407,-0.194245 0.47407,-0.193275 0.47406,-0.192311 0.47407,-0.191352 0.47407,-0.190398 0.47407,-0.189448 0.47406,-0.188504 0.47407,-0.187563 0.47407,-0.186627 0.47407,-0.185698 0.47406,-0.18477 0.47407,-0.183849 0.47407,-0.182932 0.47407,-0.18202 0.47406,-0.181112 0.47407,-0.18021 0.47407,-0.17931 0.47407,-0.178415 0.47406,-0.177526 0.47407,-0.17664 0.47407,-0.17576 0.47407,-0.174882 0.47406,-0.174011 0.47407,-0.173143 0.47407,-0.172279 0.47407,-0.17142 0.47406,-0.170565 0.47407,-0.169714 0.47407,-0.168867 0.47407,-0.168026 0.47406,-0.167188 0.47407,-0.166354 0.47407,-0.165523 0.47407,-0.164699 0.47406,-0.163876 0.47407,-0.163061 0.47407,-0.162246 0.47406,-0.161436 0.47407,-0.160632 0.47407,-0.159831 0.47407,-0.159034 0.47406,-0.158241 0.47407,-0.157451 0.47407,-0.156665 0.47407,-0.155885 0.47406,-0.155107 0.47407,-0.154333 0.47407,-0.153565 0.47407,-0.152797 0.47406,-0.152036 0.47407,-0.151278 0.47407,-0.150523 0.47407,-0.149772 0.47406,-0.149025 0.47407,-0.148282 0.47407,-0.147543 0.47407,-0.146806 0.47406,-0.146075 0.47407,-0.145346 0.47407,-0.14462 0.47407,-0.1439 0.47406,-0.143182 0.47407,-0.142467 0.47407,-0.141758 0.47407,-0.141051 0.47406,-0.140345 0.47407,-0.139648 0.47407,-0.13895 0.47407,-0.138257 0.47406,-0.137568 0.47407,-0.136881 0.47407,-0.136199 0.47406,-0.13552 0.47407,-0.134843 0.47407,-0.134171 0.47407,-0.133503 0.47406,-0.132835 0.47407,-0.132174 0.47407,-0.131515 0.47407,-0.130858 0.47406,-0.130206 0.47407,-0.129556 0.47407,-0.12891 0.47407,-0.128267 0.47406,-0.127628 0.47407,-0.12699 0.47407,-0.126359 0.47407,-0.125726 0.47406,-0.125102 0.47407,-0.124475 0.47407,-0.123856 0.47407,-0.123238 0.47406,-0.122622 0.47407,-0.122012 0.47407,-0.121404 0.47407,-0.120797 0.47406,-0.120195 0.47407,-0.119596 0.47407,-0.118999 0.47407,-0.118406 0.47406,-0.117814 0.47407,-0.117228 0.47407,-0.116642 0.47406,-0.116062 0.47407,-0.115482 0.47407,-0.114906 0.47407,-0.114333 0.47406,-0.113763 0.47407,-0.113195 0.47407,-0.112631 0.47407,-0.112069 0.47406,-0.11151 0.47407,-0.110955 0.47407,-0.1104 0.47407,-0.10985 0.47406,-0.109302 0.47407,-0.108757 0.47407,-0.108215 0.47407,-0.107675 0.47406,-0.107138 0.47407,-0.106603 0.47407,-0.106071 0.47407,-0.105539 0.47406,-0.105019 0.47407,-0.104488 0.47407,-0.103968 0.47407,-0.103447 0.47406,-0.102938 0.47407,-0.102428 0.47407,-0.101907 0.47407,-0.101409 0.47406,-0.100898 0.47407,-0.1004 0.47407,-0.0999 0.47407,-0.0994 0.47406,-0.0989 0.47407,-0.0984 0.47407,-0.09791 0.47406,-0.09743 0.47407,-0.09694 0.47407,-0.09646 0.47407,-0.09598 0.47406,-0.0955 0.47407,-0.09503 0.47407,-0.09455 0.47407,-0.09408 0.47406,-0.0936 0.47407,-0.09315 0.47407,-0.09268 0.47407,-0.09221 0.47406,-0.09175 0.47407,-0.0913 0.47407,-0.09084 0.47407,-0.09038 0.47406,-0.08994 0.47407,-0.08949 0.47407,-0.08905 0.47407,-0.0886 0.47406,-0.08816 0.47407,-0.08772 0.47407,-0.08728 0.47407,-0.08685 0.47406,-0.08641 0.47407,-0.08598 0.47407,-0.08555 0.47407,-0.08513 0.47406,-0.0847 0.47407,-0.08428 0.47407,-0.08385 0.47407,-0.08344 0.47406,-0.08303 0.47407,-0.08261 0.47407,-0.0822 0.47406,-0.08178 0.47407,-0.08138 0.47407,-0.08098 0.47407,-0.08057 0.47406,-0.08017 0.47407,-0.07977 0.47407,-0.07937 0.47407,-0.07898 0.47406,-0.07858 0.47407,-0.07818 0.47407,-0.0778 0.47407,-0.07741 0.47406,-0.07702 0.47407,-0.07664 0.47407,-0.07626 0.47407,-0.07588 0.47406,-0.0755 0.47407,-0.07512 0.47407,-0.07475 0.47407,-0.07437 0.47406,-0.074 0.47407,-0.07364 0.47407,-0.07327 0.47407,-0.0729 0.47406,-0.07254 0.47407,-0.07217 0.47407,-0.07181 0.47407,-0.07146 0.47406,-0.0711 0.47407,-0.07075 0.47407,-0.0704 0.47406,-0.07005 0.47407,-0.0697 0.47407,-0.06935 0.47407,-0.069 0.47406,-0.06866 0.47407,-0.06832 0.47407,-0.06798 0.47407,-0.06764 0.47406,-0.0673 0.47407,-0.06696 0.47407,-0.06663 0.47407,-0.0663 0.47406,-0.06596 0.47407,-0.06563 0.47407,-0.06531 0.47407,-0.06498 0.47406,-0.06465 0.47407,-0.06433 0.47407,-0.06402 0.47407,-0.0637 0.47406,-0.06338 0.47407,-0.06306 0.47407,-0.06274 0.47407,-0.06243 0.47406,-0.06213 0.47407,-0.06182 0.47407,-0.06151 0.47407,-0.0612 0.47406,-0.06089 0.47407,-0.06059 0.47407,-0.06029 0.47407,-0.05998 0.47406,-0.05968 0.47407,-0.05939 0.47407,-0.05909 0.47406,-0.0588 0.47407,-0.05851 0.47407,-0.05822 0.47407,-0.05792 0.47406,-0.05763 0.47407,-0.05735 0.47407,-0.05706 0.47407,-0.05677 0.47406,-0.0565 0.47407,-0.05621 0.47407,-0.05593 0.47407,-0.05565 0.47406,-0.05537 0.47407,-0.0551 0.47407,-0.05482 0.47407,-0.05455 0.47406,-0.05428 0.47407,-0.054 0.47407,-0.05374 0.47407,-0.05347 0.47406,-0.05321 0.47407,-0.05294 0.47407,-0.05267 0.47407,-0.05241 0.47406,-0.05215 0.47407,-0.05189 0.47407,-0.05163 0.47407,-0.05138 0.47406,-0.05111 0.47407,-0.05086 0.47407,-0.0506 0.47407,-0.05036 0.47406,-0.0501 0.47407,-0.04986 0.47407,-0.0496 0.47406,-0.04936 0.47407,-0.04912 0.47407,-0.04887 0.47407,-0.04863 0.47406,-0.04838 0.47407,-0.04814 0.47407,-0.0479 0.47407,-0.04766 0.47406,-0.04742 0.47407,-0.04718 0.47407,-0.04695 0.47407,-0.04672 0.47406,-0.04648 0.47407,-0.04625 0.47407,-0.04603 0.47407,-0.04579 0.47406,-0.04556 0.47407,-0.04534 0.47407,-0.04511 0.47407,-0.04489 0.47406,-0.04467 0.47407,-0.04444 0.47407,-0.04422 0.47407,-0.044 0.47406,-0.04378 0.47407,-0.04356 0.47407,-0.04334 0.47407,-0.04313 0.47406,-0.04291 0.47407,-0.0427 0.47407,-0.04248 0.47406,-0.04228 0.47407,-0.04207 0.47407,-0.04185 0.47407,-0.04164 0.47406,-0.04144 0.47407,-0.04123 0.47407,-0.04102 0.47407,-0.04081 0.47406,-0.04061 0.47407,-0.04041 0.47407,-0.04021 0.47407,-0.04002 0.47406,-0.03981 0.47407,-0.03961 0.47407,-0.03941 0.47407,-0.03922 0.47406,-0.03902 0.47407,-0.03883 0.47407,-0.03864 0.47407,-0.03844 0.47406,-0.03825 0.47407,-0.03806 0.47407,-0.03787 0.47407,-0.03768 0.47406,-0.03749 0.47407,-0.03731 0.47407,-0.03712 0.47407,-0.03694 0.47406,-0.03674 0.47407,-0.03656 0.47407,-0.03638 0.47407,-0.0362 0.47406,-0.03602 0.47407,-0.03584 0.47407,-0.03566 0.47406,-0.03548 0.47407,-0.03531 0.47407,-0.03513 0.47407,-0.03496 0.47406,-0.03478 0.47407,-0.03461 0.47407,-0.03444 0.47407,-0.03427 0.47406,-0.03409 0.47407,-0.03392 0.47407,-0.03375 0.47407,-0.03359 0.47406,-0.03342 0.47407,-0.03325 0.47407,-0.03309 0.47407,-0.03292 0.47406,-0.03275 0.47407,-0.03259 0.47407,-0.03243 0.47407,-0.03227 0.47406,-0.0321 0.47407,-0.03194 0.47407,-0.03178 0.47407,-0.03163 0.47406,-0.03148 0.47407,-0.03132 0.47407,-0.03116 0.47407,-0.031 0.47406,-0.03085 0.47407,-0.03069 0.47407,-0.03054 0.47407,-0.03039 0.47406,-0.03023 0.47407,-0.03009 0.47407,-0.02994 0.47406,-0.02979 0.47407,-0.02964 0.47407,-0.02949 0.47407,-0.02934 0.47406,-0.02919 0.47407,-0.02906 0.47407,-0.02891 0.47407,-0.02876 0.47406,-0.02862 0.47407,-0.02848 0.47407,-0.02833 0.47407,-0.0282 0.47406,-0.02806 0.47407,-0.02791 0.47407,-0.02777 0.47407,-0.02763 0.47406,-0.02749 0.47407,-0.02736 0.47407,-0.02723 0.47407,-0.02709 0.47406,-0.02695 0.47407,-0.02681 0.47407,-0.02669 0.47407,-0.02655 0.47406,-0.02642 0.47407,-0.02628 0.47407,-0.02616 0.47407,-0.02603 0.47406,-0.0259 0.47407,-0.02576 0.47407,-0.02564 0.47406,-0.02551 0.47407,-0.02538 0.47407,-0.02525 0.47407,-0.02514 0.47406,-0.02501 0.47407,-0.02488 0.47407,-0.02475 0.47407,-0.02464 0.47406,-0.02451 0.47407,-0.02438 0.47407,-0.02427 0.47407,-0.02415 0.47406,-0.02402 0.47407,-0.0239 0.47407,-0.02379 0.47407,-0.02367 0.47406,-0.02355 0.47407,-0.02343 0.47407,-0.02331 0.47407,-0.02319 0.47406,-0.02309 0.47407,-0.02297 0.47407,-0.02285 0.47407,-0.02274 0.47406,-0.02263 0.47407,-0.02251 0.47407,-0.0224 0.47407,-0.02229 0.47406,-0.02217 0.47407,-0.02207 0.47407,-0.02196 0.47407,-0.02184 0.47406,-0.02174 0.47407,-0.02163 0.47407,-0.02153 0.47406,-0.02142 0.47407,-0.0213 0.47407,-0.0212 0.47407,-0.0211 0.47406,-0.021 0.47407,-0.02089 0.47407,-0.02078 0.47407,-0.02068 0.47406,-0.02057 0.47407,-0.02047 0.47407,-0.02037 0.47407,-0.02027 0.47406,-0.02017 0.47407,-0.02007 0.47407,-0.01997 0.47407,-0.01987 0.47406,-0.01976 0.47407,-0.01967 0.47407,-0.01957 0.47407,-0.01948 0.47406,-0.01938 0.47407,-0.01928 0.47407,-0.01919 0.47407,-0.01908 0.47406,-0.01899 0.47407,-0.0189 0.47407,-0.01881 0.47407,-0.01871 0.47406,-0.01862 0.47407,-0.01852 0.47407,-0.01844 0.47407,-0.01834 0.47406,-0.01824 0.47407,-0.01816 0.47407,-0.01807 0.47406,-0.01798 0.47407,-0.01788 0.47407,-0.0178 0.47407,-0.01771 0.47406,-0.01762 0.47407,-0.01753 0.47407,-0.01745 0.47407,-0.01736 0.47406,-0.01728 0.47407,-0.01718 0.47407,-0.0171 0.47407,-0.01701 0.47406,-0.01693 0.47407,-0.01684 0.47407,-0.01676 0.47407,-0.01667 0.47406,-0.0166 0.47407,-0.01651 0.47407,-0.01643 0.47407,-0.01634 0.47406,-0.01627 0.47407,-0.01619 0.47407,-0.01611 0.47407,-0.01603 0.47406,-0.01594 0.47407,-0.01587 0.47407,-0.01579 0.47407,-0.01571 0.47406,-0.01563 0.47407,-0.01555 0.47407,-0.01547 0.47406,-0.0154 0.47407,-0.01531 0.47407,-0.01524 0.47407,-0.01516 0.47406,-0.01509 0.47407,-0.01502 0.47407,-0.01494 0.47407,-0.01487 0.47406,-0.01479 0.47407,-0.01472 0.47407,-0.01464 0.47407,-0.01457 0.47406,-0.0145 0.47407,-0.01442 0.47407,-0.01436 0.47407,-0.01428 0.47406,-0.01421 0.47407,-0.01415 0.47407,-0.01407 0.47407,-0.014 0.47406,-0.01393 0.47407,-0.01386 0.47407,-0.01379 0.47407,-0.01372 0.47406,-0.01366 0.47407,-0.01358 0.47407,-0.01352 0.47407,-0.01346 0.47406,-0.01338 0.47407,-0.01332 0.47407,-0.01325 0.47407,-0.01319 0.47406,-0.01312 0.47407,-0.01305 0.47407,-0.01299 0.47406,-0.01293 0.47407,-0.01286 0.47407,-0.0128 0.47407,-0.01273 0.47406,-0.01267 0.47407,-0.01261 0.47407,-0.01254 0.47406,-0.01247" />
  <polygon
     id="polygon5022"
     style="fill:none;stroke:#fcfffe;stroke-width:3;stroke-linecap:square;stroke-linejoin:miter;stroke-miterlimit:4;stroke-dasharray:none;stroke-opacity:1"
     points="518.4,43.2 518.4,388.8 72,388.8 72,43.2 "
     transform="matrix(1.061979,0,0,1.061979,-19.5793,-28.69041)" />
  <path
     inkscape:connector-curvature="0"
     id="path21"
     style="fill:#a9ffff;fill-opacity:1;stroke:#fcfffe;stroke-width:3.18593693;stroke-linecap:square;stroke-linejoin:miter;stroke-miterlimit:4;stroke-dasharray:none;stroke-opacity:1"
     d="m 151.69667,384.20703 v -5.3099" />
</svg>
