<?xml version="1.0" encoding="UTF-8" standalone="no"?>
<!-- Created with Inkscape (http://www.inkscape.org/) -->

<svg
   xmlns:dc="http://purl.org/dc/elements/1.1/"
   xmlns:cc="http://creativecommons.org/ns#"
   xmlns:rdf="http://www.w3.org/1999/02/22-rdf-syntax-ns#"
   xmlns:svg="http://www.w3.org/2000/svg"
   xmlns="http://www.w3.org/2000/svg"
   xmlns:sodipodi="http://sodipodi.sourceforge.net/DTD/sodipodi-0.dtd"
   xmlns:inkscape="http://www.inkscape.org/namespaces/inkscape"
   version="1.0"
   width="720"
   height="500"
   viewBox="0 0 576 432"
   id="svg1"
   sodipodi:docname="Series_RC_resistor_voltage-dark.svg"
   inkscape:version="0.92.2 5c3e80d, 2017-08-06">
  <metadata
     id="metadata57">
    <rdf:RDF>
      <cc:Work
         rdf:about="">
        <dc:format>image/svg+xml</dc:format>
        <dc:type
           rdf:resource="http://purl.org/dc/dcmitype/StillImage" />
      </cc:Work>
    </rdf:RDF>
  </metadata>
  <sodipodi:namedview
     pagecolor="#ffffff"
     bordercolor="#666666"
     borderopacity="1"
     objecttolerance="10"
     gridtolerance="10"
     guidetolerance="10"
     inkscape:pageopacity="0"
     inkscape:pageshadow="2"
     inkscape:window-width="1293"
     inkscape:window-height="770"
     id="namedview55"
     showgrid="false"
     inkscape:zoom="1.0861111"
     inkscape:cx="214.53615"
     inkscape:cy="241.25552"
     inkscape:window-x="0"
     inkscape:window-y="0"
     inkscape:window-maximized="0"
     inkscape:current-layer="svg1" />
  <defs
     id="defs111" />
  <polygon
     points="72,388.8 72,43.2 518.4,43.2 518.4,388.8 "
     style="fill:#000000;fill-opacity:0.39215687;stroke:none;stroke-width:3;stroke-linecap:square;stroke-linejoin:miter;stroke-miterlimit:4;stroke-dasharray:none"
     id="polygon12885"
     transform="matrix(1.088035,0,0,1.088035,-22.77372,-34.64384)" />
  <path
     d="M 55.5648,384.12063 H 541.26362"
     style="fill:none;stroke:#494949;stroke-width:3.26410508;stroke-linecap:square;stroke-linejoin:miter;stroke-miterlimit:4;stroke-dasharray:none;stroke-opacity:1"
     id="path68"
     inkscape:connector-curvature="0" />
  <path
     d="M 444.12386,388.38417 V 12.359272"
     style="fill:none;stroke:#494949;stroke-width:3.26410508;stroke-linecap:square;stroke-linejoin:miter;stroke-miterlimit:4;stroke-dasharray:none;stroke-opacity:1"
     id="path46"
     inkscape:connector-curvature="0" />
  <g
     transform="matrix(1.088035,0,0,1.088035,-22.77372,-30.2917)"
     id="xtick1"
     style="fill:#fffffc;fill-opacity:1">
    <text
       x="68.796875"
       y="401.79999"
       style="font-size:20px;font-family:'Times New Roman';fill:#fffffc;fill-opacity:1"
       id="text11">0</text>
  </g>
  <path
     d="M 152.70456,388.38417 V 12.359272"
     style="fill:none;stroke:#494949;stroke-width:3.26410508;stroke-linecap:square;stroke-linejoin:miter;stroke-miterlimit:4;stroke-dasharray:none;stroke-opacity:1"
     id="path19"
     inkscape:connector-curvature="0" />
  <path
     d="M 152.70456,17.799447 V 12.359272"
     style="fill:none;stroke:#fffff5;stroke-width:3.26410508;stroke-linecap:square;stroke-linejoin:miter;stroke-miterlimit:4;stroke-dasharray:none;stroke-opacity:1"
     id="path23"
     inkscape:connector-curvature="0" />
  <text
     x="147.80841"
     y="406.88074"
     style="font-size:21.76070023px;font-family:'Times New Roman';fill:#fffffc;stroke-width:1.08803499;fill-opacity:1;"
     id="text25">τ</text>
  <path
     d="M 249.84433,388.38417 V 12.359272"
     style="fill:none;stroke:#494949;stroke-width:3.26410508;stroke-linecap:square;stroke-linejoin:miter;stroke-miterlimit:4;stroke-dasharray:none;stroke-opacity:1"
     id="path28"
     inkscape:connector-curvature="0" />
  <path
     d="m 152.70456,388.38417 v -5.44018"
     style="fill:none;stroke:#fffff5;stroke-width:3.26410508;stroke-linecap:square;stroke-linejoin:miter;stroke-miterlimit:4;stroke-dasharray:none;stroke-opacity:1"
     id="path21"
     inkscape:connector-curvature="0" />
  <path
     d="M 249.84433,17.799447 V 12.359272"
     style="fill:none;stroke:#fffff5;stroke-width:3.26410508;stroke-linecap:square;stroke-linejoin:miter;stroke-miterlimit:4;stroke-dasharray:none;stroke-opacity:1"
     id="path32"
     inkscape:connector-curvature="0" />
  <text
     x="240.59602"
     y="406.88074"
     style="font-size:21.76070023px;font-family:'Times New Roman';fill:#fffffc;stroke-width:1.08803499;fill-opacity:1;"
     id="text34">2τ</text>
  <path
     d="M 346.98409,388.38417 V 12.359272"
     style="fill:none;stroke:#494949;stroke-width:3.26410508;stroke-linecap:square;stroke-linejoin:miter;stroke-miterlimit:4;stroke-dasharray:none;stroke-opacity:1"
     id="path37"
     inkscape:connector-curvature="0" />
  <path
     d="m 249.84433,388.38417 v -5.44018"
     style="fill:none;stroke:#fffff5;stroke-width:3.26410508;stroke-linecap:square;stroke-linejoin:miter;stroke-miterlimit:4;stroke-dasharray:none;stroke-opacity:1"
     id="path30"
     inkscape:connector-curvature="0" />
  <path
     d="M 346.98409,17.799447 V 12.359272"
     style="fill:none;stroke:#fffff5;stroke-width:3.26410508;stroke-linecap:square;stroke-linejoin:miter;stroke-miterlimit:4;stroke-dasharray:none;stroke-opacity:1"
     id="path41"
     inkscape:connector-curvature="0" />
  <text
     x="337.73578"
     y="406.88074"
     style="font-size:21.76070023px;font-family:'Times New Roman';fill:#fffffc;stroke-width:1.08803499;fill-opacity:1;"
     id="text43">3τ</text>
  <path
     d="m 346.98409,388.38417 v -5.44018"
     style="fill:none;stroke:#fffff5;stroke-width:3.26410508;stroke-linecap:square;stroke-linejoin:miter;stroke-miterlimit:4;stroke-dasharray:none;stroke-opacity:1"
     id="path39"
     inkscape:connector-curvature="0" />
  <path
     d="m 444.12386,388.38417 v -5.44018"
     style="fill:none;stroke:#fffff5;stroke-width:3.26410508;stroke-linecap:square;stroke-linejoin:miter;stroke-miterlimit:4;stroke-dasharray:none;stroke-opacity:1"
     id="path48"
     inkscape:connector-curvature="0" />
  <path
     d="M 444.12386,17.799447 V 12.359272"
     style="fill:none;stroke:#fffff5;stroke-width:3.26410508;stroke-linecap:square;stroke-linejoin:miter;stroke-miterlimit:4;stroke-dasharray:none;stroke-opacity:1"
     id="path50"
     inkscape:connector-curvature="0" />
  <text
     x="434.49304"
     y="406.88074"
     style="font-size:21.76070023px;font-family:'Times New Roman';fill:#fffffc;stroke-width:1.08803499;fill-opacity:1;"
     id="text52">4τ</text>
  <g
     transform="matrix(1.088035,0,0,1.088035,-27.12586,-30.2917)"
     id="xtick6"
     style="fill:#fffffc;fill-opacity:1">
    <text
       x="509.89999"
       y="401.79999"
       style="font-size:20px;font-family:'Times New Roman';fill:#fffffc;fill-opacity:1"
       id="text55">5τ</text>
  </g>
  <text
     x="281.32867"
     y="424.28931"
     style="font-size:21.76070023px;font-family:'Times New Roman';fill:#fffffc;stroke-width:1.08803499;fill-opacity:1;"
     id="text57">Time</text>
  <path
     d="m 55.5648,384.12063 h 5.440175"
     style="fill:none;stroke:#fffff5;stroke-width:3.26410508;stroke-linecap:square;stroke-linejoin:miter;stroke-miterlimit:4;stroke-dasharray:none;stroke-opacity:1"
     id="path70"
     inkscape:connector-curvature="0" />
  <path
     d="m 535.82345,384.12063 h 5.44017"
     style="fill:none;stroke:#fffff5;stroke-width:3.26410508;stroke-linecap:square;stroke-linejoin:miter;stroke-miterlimit:4;stroke-dasharray:none;stroke-opacity:1"
     id="path72"
     inkscape:connector-curvature="0" />
  <text
     x="6.297215"
     y="389.56082"
     style="font-size:21.76070023px;font-family:'Times New Roman';fill:#fffffc;stroke-width:1.08803499;fill-opacity:1;"
     id="text74">1.8%</text>
  <g
     id="ytick1"
     transform="matrix(1.088035,0,0,1.088035,-22.77372,-34.64384)"
     style="fill:#fffffc;fill-opacity:1">
    <path
       d="m 72,388.70882 h 5"
       style="opacity:1;fill:#fffffc;stroke:#000000;stroke-width:0.5;stroke-linecap:butt;stroke-linejoin:miter;fill-opacity:1"
       id="path61"
       inkscape:connector-curvature="0" />
    <path
       d="m 513.4,388.70882 h 5"
       style="opacity:1;fill:#fffffc;stroke:#000000;stroke-width:0.5;stroke-linecap:butt;stroke-linejoin:miter;fill-opacity:1"
       id="path63"
       inkscape:connector-curvature="0" />
    <text
       x="522.59375"
       y="393.70883"
       style="font-size:20px;font-family:'Times New Roman';fill:#fffffc;fill-opacity:1"
       id="text65">0.7%</text>
  </g>
  <path
     d="M 55.5648,372.00621 H 541.26362"
     style="fill:none;stroke:#494949;stroke-width:3.26410508;stroke-linecap:square;stroke-linejoin:miter;stroke-miterlimit:4;stroke-dasharray:none;stroke-opacity:1"
     id="path77"
     inkscape:connector-curvature="0" />
  <path
     d="m 55.5648,372.00621 h 5.440175"
     style="fill:none;stroke:#fffff5;stroke-width:3.26410508;stroke-linecap:square;stroke-linejoin:miter;stroke-miterlimit:4;stroke-dasharray:none;stroke-opacity:1"
     id="path79"
     inkscape:connector-curvature="0" />
  <path
     d="m 535.82345,372.00621 h 5.44017"
     style="fill:none;stroke:#fffff5;stroke-width:3.26410508;stroke-linecap:square;stroke-linejoin:miter;stroke-miterlimit:4;stroke-dasharray:none;stroke-opacity:1"
     id="path81"
     inkscape:connector-curvature="0" />
  <text
     x="544.73853"
     y="377.44638"
     style="font-size:21.76070023px;font-family:'Times New Roman';fill:#fffffc;stroke-width:1.08803499;fill-opacity:1;"
     id="text83">5%</text>
  <path
     d="M 55.5648,339.82727 H 541.26362"
     style="fill:none;stroke:#494949;stroke-width:3.26410508;stroke-linecap:square;stroke-linejoin:miter;stroke-miterlimit:4;stroke-dasharray:none;stroke-opacity:1"
     id="path86"
     inkscape:connector-curvature="0" />
  <path
     d="m 55.5648,339.82727 h 5.440175"
     style="fill:none;stroke:#fffff5;stroke-width:3.26410508;stroke-linecap:square;stroke-linejoin:miter;stroke-miterlimit:4;stroke-dasharray:none;stroke-opacity:1"
     id="path88"
     inkscape:connector-curvature="0" />
  <path
     d="m 535.82345,339.82727 h 5.44017"
     style="fill:none;stroke:#fffff5;stroke-width:3.26410508;stroke-linecap:square;stroke-linejoin:miter;stroke-miterlimit:4;stroke-dasharray:none;stroke-opacity:1"
     id="path90"
     inkscape:connector-curvature="0" />
  <text
     x="-2.4070649"
     y="345.26746"
     style="font-size:21.76070023px;font-family:'Times New Roman';fill:#fffffc;stroke-width:1.08803499;fill-opacity:1;"
     id="text92">13.5%</text>
  <path
     d="M 55.5648,251.61913 H 541.26362"
     style="fill:none;stroke:#494949;stroke-width:3.26410508;stroke-linecap:square;stroke-linejoin:miter;stroke-miterlimit:4;stroke-dasharray:none;stroke-opacity:1"
     id="path95"
     inkscape:connector-curvature="0" />
  <path
     d="m 55.5648,251.61913 h 5.440175"
     style="fill:none;stroke:#fffff5;stroke-width:3.26410508;stroke-linecap:square;stroke-linejoin:miter;stroke-miterlimit:4;stroke-dasharray:none;stroke-opacity:1"
     id="path97"
     inkscape:connector-curvature="0" />
  <path
     d="m 535.82345,251.61913 h 5.44017"
     style="fill:none;stroke:#fffff5;stroke-width:3.26410508;stroke-linecap:square;stroke-linejoin:miter;stroke-miterlimit:4;stroke-dasharray:none;stroke-opacity:1"
     id="path99"
     inkscape:connector-curvature="0" />
  <text
     x="-3.6311042"
     y="257.05933"
     style="font-size:21.76070023px;font-family:'Times New Roman';fill:#fffffc;stroke-width:1.08803499;fill-opacity:1;"
     id="text101">36.8%</text>
  <g
     id="mathtext1"
     transform="matrix(1.088035,0,0,1.088035,-22.77372,-34.64384)"
     style="fill:#fffffc;fill-opacity:1">
    <text
       x="36.59375"
       y="224.96875"
       transform="rotate(-90,24.59375,224.46875)"
       style="font-style:italic;font-size:17.75px;font-family:'Times New Roman';fill:#fffffc;fill-opacity:1"
       id="text104">r</text>
    <text
       x="24.59375"
       y="222.46875"
       transform="rotate(-90,24.59375,224.46875)"
       style="font-style:italic;font-size:22.5px;font-family:'Times New Roman';fill:#fffffc;fill-opacity:1"
       id="text106">V</text>
  </g>
  <path
     d="m 55.842509,13.025774 0.20799,1.221652 0.485699,1.878737 0.485698,1.869367 0.485699,1.860043 0.485699,1.850767 0.485699,1.841535 0.485699,1.832351 0.485699,1.823212 0.485698,1.814119 0.485699,1.805071 0.485699,1.796068 0.485699,1.787109 0.485699,1.778198 0.485699,1.769327 0.485698,1.760504 0.485699,1.751722 0.485699,1.742987 0.485699,1.734293 0.485699,1.725643 0.485698,1.717035 0.485699,1.708473 0.485699,1.699953 0.485699,1.691472 0.485699,1.683037 0.485699,1.674642 0.485698,1.666291 0.485699,1.657979 0.485699,1.64971 0.485699,1.641483 0.485699,1.633296 0.485699,1.625149 0.485698,1.617044 0.485699,1.60898 0.485699,1.600953 0.485699,1.59297 0.485699,1.585021 0.485698,1.577118 0.485699,1.569262 0.485699,1.561417 0.485699,1.553649 0.485699,1.54588 0.485699,1.538188 0.485698,1.530506 0.485699,1.522879 0.485699,1.515274 0.485699,1.507723 0.485699,1.500204 0.485699,1.492719 0.485698,1.485276 0.485699,1.477867 0.485699,1.47049 0.485699,1.463168 0.485699,1.455853 0.485698,1.44861 0.485699,1.44138 0.485699,1.43419 0.485699,1.42703 0.485699,1.41992 0.485699,1.41284 0.485698,1.40579 0.485699,1.39878 0.485699,1.39181 0.485699,1.38486 0.485699,1.37795 0.485699,1.37108 0.485698,1.36424 0.485699,1.35744 0.485699,1.35067 0.485699,1.34393 0.485699,1.33724 0.485699,1.33055 0.485698,1.32393 0.485699,1.31731 0.485699,1.31076 0.485699,1.3042 0.485699,1.29771 0.485698,1.29124 0.485699,1.2848 0.485699,1.27838 0.485699,1.27201 0.485699,1.26567 0.485699,1.25936 0.485698,1.25308 0.485699,1.24682 0.485699,1.24061 0.485699,1.23441 0.485699,1.22827 0.485699,1.22214 0.485698,1.21603 0.485699,1.20998 0.485699,1.20393 0.485697,1.19794 0.4857,1.19196 0.4857,1.18602 0.4857,1.1801 0.4857,1.17422 0.4857,1.16835 0.48569,1.16253 0.4857,1.15674 0.4857,1.15097 0.4857,1.14522 0.4857,1.13951 0.4857,1.13383 0.4857,1.12817 0.4857,1.12255 0.4857,1.11694 0.48569,1.11138 0.4857,1.10583 0.4857,1.10032 0.4857,1.09483 0.4857,1.08937 0.4857,1.08394 0.4857,1.07853 0.4857,1.07315 0.48569,1.06781 0.4857,1.06246 0.4857,1.05718 0.4857,1.0519 0.4857,1.04666 0.4857,1.04143 0.4857,1.03624 0.4857,1.03107 0.4857,1.02593 0.48569,1.02082 0.4857,1.01572 0.4857,1.01066 0.4857,1.00561 0.4857,1.0006 0.4857,0.99561 0.4857,0.99065 0.4857,0.9857 0.48569,0.98079 0.4857,0.97589 0.4857,0.97103 0.4857,0.96618 0.4857,0.96137 0.4857,0.95657 0.4857,0.9518 0.4857,0.94706 0.4857,0.94232 0.48569,0.93763 0.4857,0.93295 0.4857,0.92831 0.4857,0.92366 0.4857,0.91908 0.4857,0.91447 0.4857,0.90992 0.4857,0.90538 0.48569,0.90087 0.4857,0.89636 0.4857,0.89191 0.4857,0.88744 0.4857,0.88303 0.4857,0.87862 0.4857,0.87425 0.4857,0.86987 0.4857,0.86555 0.48569,0.86122 0.4857,0.85692 0.4857,0.85267 0.4857,0.8484 0.4857,0.84416 0.4857,0.83997 0.4857,0.83577 0.4857,0.83161 0.48569,0.82745 0.4857,0.82333 0.4857,0.81922 0.4857,0.81513 0.4857,0.81108 0.4857,0.80702 0.4857,0.803 0.4857,0.799 0.4857,0.795 0.48569,0.79105 0.4857,0.78711 0.4857,0.78316 0.4857,0.77928 0.4857,0.77537 0.4857,0.77152 0.4857,0.76767 0.4857,0.76383 0.48569,0.76003 0.4857,0.75624 0.4857,0.75246 0.4857,0.74871 0.4857,0.74499 0.4857,0.74126 0.4857,0.73756 0.4857,0.73389 0.4857,0.73023 0.48569,0.72658 0.4857,0.72296 0.4857,0.71936 0.4857,0.71576 0.4857,0.7122 0.4857,0.70865 0.4857,0.70511 0.4857,0.70159 0.48569,0.6981 0.4857,0.69461 0.4857,0.69115 0.4857,0.6877 0.4857,0.68427 0.4857,0.68086 0.4857,0.67747 0.4857,0.67408 0.4857,0.67072 0.48569,0.66738 0.4857,0.66405 0.4857,0.66074 0.4857,0.65743 0.4857,0.65416 0.4857,0.65091 0.4857,0.64765 0.4857,0.64442 0.48569,0.64121 0.4857,0.63801 0.4857,0.63483 0.4857,0.63166 0.4857,0.62851 0.4857,0.62538 0.4857,0.62226 0.4857,0.61915 0.4857,0.61607 0.48569,0.613 0.4857,0.60993 0.4857,0.60689 0.4857,0.60387 0.4857,0.60086 0.4857,0.59786 0.4857,0.59487 0.4857,0.59192 0.48569,0.58895 0.4857,0.58603 0.4857,0.58309 0.4857,0.58019 0.4857,0.5773 0.4857,0.57442 0.4857,0.57154 0.4857,0.56871 0.4857,0.56586 0.48569,0.56304 0.4857,0.56024 0.4857,0.55743 0.4857,0.55467 0.4857,0.55189 0.4857,0.54914 0.4857,0.54641 0.4857,0.54367 0.48569,0.54097 0.4857,0.53826 0.4857,0.53559 0.4857,0.53291 0.4857,0.53025 0.4857,0.52761 0.4857,0.52498 0.4857,0.52236 0.4857,0.51975 0.48569,0.51716 0.4857,0.51459 0.4857,0.51201 0.4857,0.50946 0.4857,0.50692 0.4857,0.50439 0.4857,0.50188 0.4857,0.49938 0.48569,0.49688 0.4857,0.4944 0.4857,0.49195 0.4857,0.48948 0.4857,0.48704 0.4857,0.48462 0.4857,0.4822 0.4857,0.47979 0.4857,0.47741 0.48569,0.47501 0.4857,0.47265 0.4857,0.4703 0.4857,0.46794 0.4857,0.46561 0.4857,0.4633 0.4857,0.46098 0.4857,0.45867 0.48569,0.4564 0.4857,0.45411 0.4857,0.45186 0.4857,0.4496 0.4857,0.44735 0.4857,0.44513 0.4857,0.4429 0.4857,0.44069 0.4857,0.4385 0.48569,0.43632 0.4857,0.43413 0.4857,0.43197 0.4857,0.42981 0.4857,0.42768 0.4857,0.42554 0.4857,0.42341 0.4857,0.4213 0.48569,0.41921 0.4857,0.41711 0.4857,0.41503 0.4857,0.41297 0.4857,0.41089 0.4857,0.40885 0.4857,0.40682 0.4857,0.40478 0.4857,0.40277 0.48569,0.40076 0.4857,0.39875 0.4857,0.39677 0.4857,0.3948 0.4857,0.39282 0.4857,0.39086 0.4857,0.38892 0.4857,0.38697 0.48569,0.38504 0.4857,0.38312 0.4857,0.38121 0.4857,0.37932 0.4857,0.37741 0.4857,0.37554 0.4857,0.37366 0.4857,0.37181 0.4857,0.36994 0.48569,0.3681 0.4857,0.36627 0.4857,0.36442 0.4857,0.36262 0.4857,0.36082 0.4857,0.35902 0.4857,0.35721 0.4857,0.35544 0.48569,0.35366 0.4857,0.35191 0.4857,0.35015 0.4857,0.3484 0.4857,0.34667 0.4857,0.34493 0.4857,0.34322 0.4857,0.3415 0.4857,0.33979 0.48569,0.33811 0.4857,0.33642 0.4857,0.33473 0.4857,0.33307 0.4857,0.33142 0.4857,0.32975 0.4857,0.32812 0.4857,0.32647 0.48569,0.32485 0.4857,0.32323 0.4857,0.32161 0.4857,0.32002 0.4857,0.31841 0.4857,0.31682 0.4857,0.31525 0.4857,0.31367 0.4857,0.31212 0.48569,0.31055 0.4857,0.30901 0.4857,0.30745 0.4857,0.30594 0.4857,0.3044 0.4857,0.30288 0.4857,0.30138 0.4857,0.29987 0.48569,0.29838 0.4857,0.29688 0.4857,0.29542 0.4857,0.29393 0.4857,0.29246 0.4857,0.29101 0.4857,0.28956 0.4857,0.28811 0.4857,0.28669 0.48569,0.28524 0.4857,0.28382 0.4857,0.28241 0.4857,0.281 0.4857,0.2796 0.4857,0.2782 0.4857,0.27682 0.4857,0.27543 0.48569,0.27407 0.4857,0.27269 0.4857,0.27134 0.4857,0.26998 0.4857,0.26864 0.4857,0.2673 0.4857,0.26595 0.4857,0.26465 0.4857,0.2633 0.48569,0.26201 0.4857,0.26069 0.4857,0.2594 0.4857,0.25811 0.4857,0.25681 0.4857,0.25553 0.4857,0.25426 0.4857,0.25299 0.48569,0.25173 0.4857,0.25048 0.4857,0.24922 0.4857,0.24799 0.4857,0.24673 0.4857,0.24553 0.4857,0.24428 0.4857,0.24307 0.4857,0.24186 0.48569,0.24065 0.4857,0.23946 0.4857,0.23825 0.4857,0.23708 0.4857,0.23588 0.4857,0.23471 0.4857,0.23355 0.4857,0.23237 0.48569,0.23122 0.4857,0.23007 0.4857,0.22891 0.4857,0.22777 0.4857,0.22663 0.4857,0.22552 0.4857,0.22438 0.4857,0.22326 0.4857,0.22216 0.48569,0.22104 0.4857,0.21994 0.4857,0.21884 0.4857,0.21775 0.4857,0.21667 0.4857,0.21559 0.4857,0.2145 0.4857,0.21344 0.48569,0.21238 0.4857,0.21131 0.4857,0.21027 0.4857,0.2092 0.4857,0.20818 0.4857,0.20713 0.4857,0.2061 0.4857,0.20508 0.4857,0.20404 0.48569,0.20303 0.4857,0.20202 0.4857,0.201 0.4857,0.20002 0.4857,0.19901 0.4857,0.19801 0.4857,0.19703 0.4857,0.19604 0.48569,0.19508 0.4857,0.19409 0.4857,0.19313 0.4857,0.19217 0.4857,0.1912 0.4857,0.19026 0.4857,0.1893 0.4857,0.18836 0.4857,0.18742 0.48569,0.18648 0.4857,0.18557 0.4857,0.18463 0.4857,0.1837 0.4857,0.1828 0.4857,0.18188 0.4857,0.18097 0.4857,0.18007 0.48569,0.17918 0.4857,0.17827 0.4857,0.17739 0.4857,0.17652 0.4857,0.17562 0.4857,0.17475 0.4857,0.17387 0.4857,0.17301 0.4857,0.17215 0.48569,0.1713 0.4857,0.17043 0.4857,0.16958 0.4857,0.16875 0.4857,0.16789 0.4857,0.16707 0.4857,0.16622 0.4857,0.1654 0.48569,0.16457 0.4857,0.16376 0.4857,0.16293 0.4857,0.16213 0.4857,0.16131 0.4857,0.16051 0.4857,0.15971 0.4857,0.15891 0.4857,0.15812 0.48569,0.15733 0.4857,0.15655 0.4857,0.15576 0.4857,0.15499 0.4857,0.15422 0.4857,0.15344 0.4857,0.15269 0.4857,0.15192 0.48569,0.15116 0.4857,0.15041 0.4857,0.14966 0.4857,0.14891 0.4857,0.14817 0.4857,0.14743 0.4857,0.1467 0.4857,0.14596 0.4857,0.14523 0.48569,0.14451 0.4857,0.14379 0.4857,0.14307 0.4857,0.14237 0.4857,0.14164 0.4857,0.14094 0.4857,0.14025 0.4857,0.13954 0.48569,0.13885 0.4857,0.13814 0.4857,0.13747 0.4857,0.13677 0.4857,0.13611 0.4857,0.13541 0.4857,0.13473 0.4857,0.13408 0.4857,0.1334 0.48569,0.13274 0.4857,0.13206 0.4857,0.13141 0.4857,0.13076 0.4857,0.13011 0.4857,0.12947 0.4857,0.12881 0.4857,0.12817 0.48569,0.12753 0.4857,0.12689 0.4857,0.12626 0.4857,0.12564 0.4857,0.125 0.4857,0.12437 0.4857,0.12377 0.4857,0.12314 0.4857,0.12254 0.48569,0.12191 0.4857,0.12132 0.4857,0.1207 0.4857,0.1201 0.4857,0.11951 0.4857,0.11891 0.4857,0.11832 0.4857,0.11772 0.48569,0.11714 0.4857,0.11655 0.4857,0.11597 0.4857,0.1154 0.4857,0.11482 0.4857,0.11424 0.4857,0.11368 0.4857,0.11311 0.4857,0.11254 0.48569,0.11199 0.4857,0.11143 0.4857,0.11087 0.4857,0.11031 0.4857,0.10976 0.4857,0.10922 0.4857,0.1087 0.4857,0.10815 0.48569,0.1076 0.4857,0.10707 0.4857,0.10651 0.4857,0.10598 0.4857,0.10543 0.4857,0.10489 0.4857,0.10445 0.4857,0.1039 0.4857,0.10337 0.48569,0.10282 0.4857,0.10238 0.4857,0.10184 0.4857,0.1013 0.4857,0.10086 0.4857,0.10032 0.4857,0.0998 0.4857,0.0993 0.48569,0.0988 0.4857,0.0984 0.4857,0.0978 0.4857,0.0974 0.4857,0.0968 0.4857,0.0964 0.4857,0.0958 0.4857,0.0954 0.4857,0.095 0.48569,0.0944 0.4857,0.094 0.4857,0.0936 0.4857,0.093 0.4857,0.0926 0.4857,0.0922 0.4857,0.0917 0.4857,0.0912 0.48569,0.0907 0.4857,0.0903 0.4857,0.0899 0.4857,0.0894 0.4857,0.089 0.4857,0.0886 0.4857,0.0881 0.4857,0.0877 0.4857,0.0873 0.48569,0.0868 0.4857,0.0864 0.4857,0.086 0.4857,0.0855 0.4857,0.0851 0.4857,0.0846 0.4857,0.0842 0.4857,0.0838 0.48569,0.0833 0.4857,0.0829 0.4857,0.0826 0.4857,0.0822 0.4857,0.0817 0.4857,0.0813 0.4857,0.081 0.4857,0.0805 0.4857,0.0801 0.48569,0.0798 0.4857,0.0793 0.4857,0.0789 0.4857,0.0786 0.4857,0.0781 0.4857,0.0777 0.4857,0.0774 0.4857,0.0769 0.4857,0.0766 0.48569,0.0762 0.4857,0.0758 0.4857,0.0754 0.4857,0.0751 0.4857,0.0746 0.4857,0.0743 0.4857,0.074 0.4857,0.0736 0.48569,0.0732 0.4857,0.0728 0.4857,0.0725 0.4857,0.0721 0.4857,0.0718 0.4857,0.0714 0.4857,0.0711 0.4857,0.0707 0.4857,0.0703 0.48569,0.07 0.4857,0.0696 0.4857,0.0693 0.4857,0.069 0.4857,0.0686 0.4857,0.0682 0.4857,0.0679 0.4857,0.0676 0.48569,0.0672 0.4857,0.0669 0.4857,0.0666 0.4857,0.0663 0.4857,0.0659 0.4857,0.0656 0.4857,0.0653 0.4857,0.065 0.4857,0.0646 0.48569,0.0643 0.4857,0.064 0.4857,0.0636 0.4857,0.0633 0.4857,0.063 0.4857,0.0627 0.4857,0.0624 0.4857,0.0621 0.48569,0.0618 0.4857,0.0615 0.4857,0.0611 0.4857,0.0608 0.4857,0.0605 0.4857,0.0603 0.4857,0.06 0.4857,0.0596 0.4857,0.0593 0.48569,0.0591 0.4857,0.0588 0.4857,0.0584 0.4857,0.0582 0.4857,0.0579 0.4857,0.0575 0.4857,0.0573 0.4857,0.057 0.48569,0.0567 0.4857,0.0565 0.4857,0.0561 0.4857,0.0559 0.4857,0.0556 0.4857,0.0554 0.4857,0.055 0.4857,0.0547 0.4857,0.0545 0.48569,0.0542 0.4857,0.054 0.4857,0.0537 0.4857,0.0534 0.4857,0.0532 0.4857,0.0529 0.4857,0.0527 0.4857,0.0523 0.48569,0.0521 0.4857,0.0519 0.4857,0.0516 0.4857,0.0514 0.4857,0.051 0.4857,0.0508 0.4857,0.0506 0.4857,0.0503 0.4857,0.05 0.48569,0.0498 0.4857,0.0496 0.4857,0.0493 0.4857,0.0491 0.4857,0.0489 0.4857,0.0485 0.4857,0.0483 0.4857,0.0481 0.48569,0.0479 0.4857,0.0477 0.4857,0.0473 0.4857,0.0471 0.4857,0.0469 0.4857,0.0467 0.4857,0.0465 0.4857,0.0462 0.4857,0.046 0.48569,0.0458 0.4857,0.0456 0.4857,0.0453 0.4857,0.045 0.4857,0.0448 0.4857,0.0446 0.4857,0.0444 0.4857,0.0442 0.48569,0.044 0.4857,0.0437 0.4857,0.0435 0.4857,0.0433 0.4857,0.0431 0.4857,0.0429 0.4857,0.0427 0.4857,0.0424 0.4857,0.0422 0.48569,0.042 0.4857,0.0418 0.4857,0.0416 0.4857,0.0414 0.4857,0.0412 0.4857,0.041 0.4857,0.0408 0.4857,0.0406 0.48569,0.0404 0.4857,0.0401 0.4857,0.0399 0.4857,0.0398 0.4857,0.0396 0.4857,0.0394 0.4857,0.0392 0.4857,0.0389 0.4857,0.0389 0.48569,0.0386 0.4857,0.0384 0.4857,0.0382 0.4857,0.038 0.4857,0.0379 0.4857,0.0376 0.4857,0.0374 0.4857,0.0373 0.48569,0.0371 0.4857,0.0369 0.4857,0.0367 0.4857,0.0366 0.4857,0.0363 0.4857,0.0362 0.4857,0.036 0.4857,0.0358 0.4857,0.0357 0.48569,0.0355 0.4857,0.0353 0.4857,0.0351 0.4857,0.0349 0.4857,0.0347 0.4857,0.0346 0.4857,0.0344 0.4857,0.0343 0.48569,0.034 0.4857,0.0338 0.4857,0.0337 0.4857,0.0335 0.4857,0.0334 0.4857,0.0332 0.4857,0.0331 0.4857,0.0329 0.4857,0.0327 0.48569,0.0325 0.4857,0.0324 0.4857,0.0322 0.4857,0.0321 0.4857,0.0319 0.4857,0.0318 0.4857,0.0315 0.4857,0.0315 0.48569,0.0313 0.4857,0.0311 0.4857,0.031 0.4857,0.0308 0.4857,0.0307 0.4857,0.0306 0.4857,0.0303 0.4857,0.0302 0.4857,0.03 0.48569,0.0299 0.4857,0.0298 0.4857,0.0296 0.4857,0.0295 0.4857,0.0293 0.4857,0.0292 0.4857,0.0291 0.4857,0.0289 0.48569,0.0287 0.4857,0.0286 0.4857,0.0285 0.4857,0.0283 0.4857,0.0282 0.4857,0.0281 0.4857,0.0279 0.4857,0.0278 0.4857,0.0276 0.48569,0.0275 0.4857,0.0273 0.4857,0.0272 0.4857,0.0271 0.4857,0.027 0.4857,0.0268 0.4857,0.0267 0.4857,0.0266 0.48569,0.0264 0.4857,0.0262 0.4857,0.0261 0.4857,0.026 0.4857,0.0259 0.4857,0.0258 0.4857,0.0256 0.4857,0.0255 0.4857,0.0253 0.48569,0.0252 0.4857,0.0251 0.4857,0.025 0.4857,0.0249 0.4857,0.0247 0.4857,0.0246 0.4857,0.0245 0.4857,0.0244 0.48569,0.0243 0.4857,0.0241 0.4857,0.0241 0.4857,0.0239 0.4857,0.0237 0.4857,0.0236 0.4857,0.0235 0.4857,0.0234 0.4857,0.0233 0.48569,0.0232 0.4857,0.0231 0.4857,0.0229 0.4857,0.0229 0.4857,0.0227 0.4857,0.0226 0.4857,0.0225 0.4857,0.0224 0.48569,0.0223 0.4857,0.0222 0.4857,0.0221 0.4857,0.022 0.4857,0.0219 0.4857,0.0218 0.4857,0.0217 0.4857,0.0215 0.4857,0.0214 0.48569,0.0213 0.4857,0.0212 0.4857,0.0211 0.4857,0.021 0.4857,0.0209 0.4857,0.0208 0.4857,0.0207 0.4857,0.0206 0.48569,0.0205 0.4857,0.0203 0.4857,0.0202 0.4857,0.0201 0.4857,0.02 0.4857,0.0199 0.4857,0.0198 0.4857,0.0198 0.4857,0.0197 0.48569,0.0196 0.4857,0.0195 0.4857,0.0194 0.4857,0.0192 0.4857,0.0191 0.4857,0.019 0.4857,0.0189 0.4857,0.0189 0.48569,0.0188 0.4857,0.0187 0.4857,0.0186 0.4857,0.0185 0.4857,0.0184 0.4857,0.0183 0.4857,0.0183 0.4857,0.0182 0.4857,0.0181 0.48569,0.018 0.4857,0.0178 0.4857,0.0177 0.4857,0.0177 0.4857,0.0176 0.4857,0.0175 0.4857,0.0174 0.4857,0.0173 0.48569,0.0173 0.4857,0.0172 0.4857,0.0171 0.4857,0.017 0.4857,0.0169 0.4857,0.0169 0.4857,0.0168 0.4857,0.0167 0.4857,0.0165 0.48569,0.0165 0.4857,0.0164 0.4857,0.0163 0.4857,0.0162 0.4857,0.0162 0.4857,0.0161 0.4857,0.016 0.4857,0.0159 0.48569,0.0159 0.4857,0.0158 0.4857,0.0157 0.4857,0.0157 0.4857,0.0156 0.4857,0.0154 0.4857,0.0153 0.4857,0.0153 0.4857,0.0152 0.48569,0.0151 0.4857,0.0151 0.4857,0.015 0.4857,0.0149 0.4857,0.0148 0.4857,0.0148 0.4857,0.0147 0.4857,0.0146 0.48569,0.0146 0.4857,0.0145 0.4857,0.0144 0.4857,0.0144 0.4857,0.0143 0.4857,0.0143 0.4857,0.0141 0.4857,0.014 0.4857,0.014 0.48569,0.0139 0.4857,0.0138 0.4857,0.0138 0.4857,0.0137 0.4857,0.0136 0.4857,0.0136 0.4857,0.0135 0.4857,0.0135 0.48569,0.0134 0.4857,0.0133 0.4857,0.0133 0.4857,0.0132 0.4857,0.0132 0.4857,0.0131 0.4857,0.0129 0.4857,0.0129 0.4857,0.0128 0.48569,0.0128"
     style="fill:none;stroke:#42affa;stroke-width:3.26410508;stroke-linecap:square;stroke-linejoin:miter;stroke-miterlimit:4;stroke-dasharray:none;stroke-opacity:1"
     id="path108"
     inkscape:connector-curvature="0" />
  <polygon
     points="72,388.8 72,43.2 518.4,43.2 518.4,388.8 "
     style="fill:none;stroke:#ffffff;stroke-width:3;stroke-linecap:square;stroke-linejoin:miter;stroke-miterlimit:4;stroke-dasharray:none;stroke-opacity:1"
     id="polygon7"
     transform="matrix(1.088035,0,0,1.088035,-22.77372,-34.64384)" />
  <text
     x="1.8090708"
     y="22.150526"
     style="font-style:normal;font-variant:normal;font-weight:normal;font-stretch:normal;font-size:21.76070023px;line-height:125%;font-family:'Times New Roman';text-align:start;writing-mode:lr-tb;text-anchor:start;fill:#fffffc;stroke-width:1.08803499;fill-opacity:1;"
     id="text8459">
    <tspan
       x="1.8090708"
       y="22.150526"
       id="tspan8461"
       style="stroke-width:1.08803499;fill:#fffffc;fill-opacity:1;">100%</tspan>
  </text>
</svg>
