<?xml version="1.0" encoding="utf-8" standalone="no"?>
<!DOCTYPE svg PUBLIC "-//W3C//DTD SVG 1.1//EN"
  "http://www.w3.org/Graphics/SVG/1.1/DTD/svg11.dtd">
<!-- Created with matplotlib (https://matplotlib.org/) -->
<svg height="576pt" version="1.1" viewBox="0 0 720 576" width="720pt" xmlns="http://www.w3.org/2000/svg" xmlns:xlink="http://www.w3.org/1999/xlink">
 <defs>
  <style type="text/css">
*{stroke-linecap:butt;stroke-linejoin:round;white-space:pre;}
  </style>
 </defs>
 <g id="figure_1">
  <g id="patch_1">
   <path d="M 0 576 
L 720 576 
L 720 0 
L 0 0 
z
" style="fill:none;"/>
  </g>
  <g id="axes_1">
   <g id="patch_2">
    <path d="M 90 504 
L 648 504 
L 648 69.12 
L 90 69.12 
z
" style="fill:none;"/>
   </g>
   <g id="matplotlib.axis_1">
    <g id="xtick_1">
     <g id="line2d_1"/>
     <g id="line2d_2"/>
     <g id="text_1">
      <!-- 2 -->
      <defs>
       <path d="M 3.125 0 
Q 3.609375 9.03125 6.859375 15.71875 
Q 10.109375 22.40625 19.53125 27.875 
L 28.90625 33.296875 
Q 35.203125 36.96875 37.75 39.546875 
Q 41.75 43.609375 41.75 48.828125 
Q 41.75 54.9375 38.078125 58.515625 
Q 34.421875 62.109375 28.328125 62.109375 
Q 19.28125 62.109375 15.828125 55.28125 
Q 13.96875 51.609375 13.765625 45.125 
L 4.828125 45.125 
Q 4.984375 54.25 8.203125 60.015625 
Q 13.921875 70.171875 28.375 70.171875 
Q 40.375 70.171875 45.921875 63.671875 
Q 51.46875 57.171875 51.46875 49.21875 
Q 51.46875 40.828125 45.5625 34.859375 
Q 42.140625 31.390625 33.296875 26.46875 
L 26.609375 22.75 
Q 21.828125 20.125 19.09375 17.71875 
Q 14.203125 13.484375 12.9375 8.296875 
L 51.125 8.296875 
L 51.125 0 
L 3.125 0 
z
" id="Helvetica-50"/>
      </defs>
      <g style="fill:#808080;" transform="translate(192.701561 520.791742)scale(0.1365 -0.1365)">
       <use xlink:href="#Helvetica-50"/>
      </g>
     </g>
    </g>
    <g id="xtick_2">
     <g id="line2d_3"/>
     <g id="line2d_4"/>
     <g id="text_2">
      <!-- 4 -->
      <defs>
       <path d="M 33.0625 24.75 
L 33.0625 56.453125 
L 10.640625 24.75 
z
M 33.203125 0 
L 33.203125 17.09375 
L 2.546875 17.09375 
L 2.546875 25.6875 
L 34.578125 70.125 
L 42 70.125 
L 42 24.75 
L 52.296875 24.75 
L 52.296875 17.09375 
L 42 17.09375 
L 42 0 
z
" id="Helvetica-52"/>
      </defs>
      <g style="fill:#808080;" transform="translate(301.603635 520.791742)scale(0.1365 -0.1365)">
       <use xlink:href="#Helvetica-52"/>
      </g>
     </g>
    </g>
    <g id="xtick_3">
     <g id="line2d_5"/>
     <g id="line2d_6"/>
     <g id="text_3">
      <!-- 6 -->
      <defs>
       <path d="M 29.25 70.21875 
Q 40.96875 70.21875 45.578125 64.140625 
Q 50.203125 58.0625 50.203125 51.609375 
L 41.5 51.609375 
Q 40.71875 55.765625 39.015625 58.109375 
Q 35.84375 62.5 29.390625 62.5 
Q 22.015625 62.5 17.671875 55.6875 
Q 13.328125 48.875 12.84375 36.1875 
Q 15.875 40.625 20.453125 42.828125 
Q 24.65625 44.78125 29.828125 44.78125 
Q 38.625 44.78125 45.15625 39.15625 
Q 51.703125 33.546875 51.703125 22.40625 
Q 51.703125 12.890625 45.5 5.53125 
Q 39.3125 -1.8125 27.828125 -1.8125 
Q 18.015625 -1.8125 10.890625 5.640625 
Q 3.765625 13.09375 3.765625 30.71875 
Q 3.765625 43.75 6.9375 52.828125 
Q 13.03125 70.21875 29.25 70.21875 
z
M 28.609375 6 
Q 35.546875 6 38.984375 10.65625 
Q 42.4375 15.328125 42.4375 21.6875 
Q 42.4375 27.046875 39.359375 31.90625 
Q 36.28125 36.765625 28.171875 36.765625 
Q 22.515625 36.765625 18.234375 33 
Q 13.96875 29.25 13.96875 21.6875 
Q 13.96875 15.046875 17.84375 10.515625 
Q 21.734375 6 28.609375 6 
z
" id="Helvetica-54"/>
      </defs>
      <g style="fill:#808080;" transform="translate(410.50571 520.791742)scale(0.1365 -0.1365)">
       <use xlink:href="#Helvetica-54"/>
      </g>
     </g>
    </g>
    <g id="xtick_4">
     <g id="line2d_7"/>
     <g id="line2d_8"/>
     <g id="text_4">
      <!-- 8 -->
      <defs>
       <path d="M 27.203125 40.625 
Q 33.015625 40.625 36.28125 43.875 
Q 39.546875 47.125 39.546875 51.609375 
Q 39.546875 55.515625 36.421875 58.78125 
Q 33.296875 62.0625 26.90625 62.0625 
Q 20.5625 62.0625 17.71875 58.78125 
Q 14.890625 55.515625 14.890625 51.125 
Q 14.890625 46.1875 18.546875 43.40625 
Q 22.21875 40.625 27.203125 40.625 
z
M 27.734375 6 
Q 33.84375 6 37.859375 9.296875 
Q 41.890625 12.59375 41.890625 19.140625 
Q 41.890625 25.921875 37.734375 29.4375 
Q 33.59375 32.953125 27.09375 32.953125 
Q 20.796875 32.953125 16.8125 29.359375 
Q 12.84375 25.78125 12.84375 19.4375 
Q 12.84375 13.96875 16.484375 9.984375 
Q 20.125 6 27.734375 6 
z
M 15.234375 37.25 
Q 11.578125 38.8125 9.515625 40.921875 
Q 5.671875 44.828125 5.671875 51.078125 
Q 5.671875 58.890625 11.328125 64.5 
Q 17 70.125 27.390625 70.125 
Q 37.453125 70.125 43.15625 64.8125 
Q 48.875 59.515625 48.875 52.4375 
Q 48.875 45.90625 45.5625 41.84375 
Q 43.703125 39.546875 39.796875 37.359375 
Q 44.140625 35.359375 46.625 32.765625 
Q 51.265625 27.875 51.265625 20.0625 
Q 51.265625 10.84375 45.0625 4.421875 
Q 38.875 -2 27.546875 -2 
Q 17.328125 -2 10.265625 3.53125 
Q 3.21875 9.078125 3.21875 19.625 
Q 3.21875 25.828125 6.25 30.34375 
Q 9.28125 34.859375 15.234375 37.25 
z
" id="Helvetica-56"/>
      </defs>
      <g style="fill:#808080;" transform="translate(519.407784 520.791742)scale(0.1365 -0.1365)">
       <use xlink:href="#Helvetica-56"/>
      </g>
     </g>
    </g>
    <g id="xtick_5">
     <g id="line2d_9"/>
     <g id="line2d_10"/>
     <g id="text_5">
      <!-- 10 -->
      <defs>
       <path d="M 9.578125 49.515625 
L 9.578125 56.25 
Q 19.09375 57.171875 22.84375 59.34375 
Q 26.609375 61.53125 28.46875 69.625 
L 35.40625 69.625 
L 35.40625 0 
L 26.03125 0 
L 26.03125 49.515625 
z
" id="Helvetica-49"/>
       <path d="M 27.046875 69.921875 
Q 40.625 69.921875 46.6875 58.734375 
Q 51.375 50.09375 51.375 35.0625 
Q 51.375 20.796875 47.125 11.46875 
Q 40.96875 -1.90625 27 -1.90625 
Q 14.40625 -1.90625 8.25 9.03125 
Q 3.125 18.171875 3.125 33.546875 
Q 3.125 45.453125 6.203125 54 
Q 11.96875 69.921875 27.046875 69.921875 
z
M 26.953125 6.109375 
Q 33.796875 6.109375 37.84375 12.15625 
Q 41.890625 18.21875 41.890625 34.71875 
Q 41.890625 46.625 38.953125 54.3125 
Q 36.03125 62.015625 27.59375 62.015625 
Q 19.828125 62.015625 16.234375 54.703125 
Q 12.640625 47.40625 12.640625 33.203125 
Q 12.640625 22.515625 14.9375 16.015625 
Q 18.453125 6.109375 26.953125 6.109375 
z
" id="Helvetica-48"/>
      </defs>
      <g style="fill:#808080;" transform="translate(624.514518 520.791742)scale(0.1365 -0.1365)">
       <use xlink:href="#Helvetica-49"/>
       <use x="55.615234" xlink:href="#Helvetica-48"/>
      </g>
     </g>
    </g>
    <g id="text_6">
     <!-- Lateral Distance ($\mu$m) -->
     <defs>
      <path d="M 7.625 71.734375 
L 17.328125 71.734375 
L 17.328125 8.546875 
L 53.65625 8.546875 
L 53.65625 0 
L 7.625 0 
z
" id="Helvetica-76"/>
      <path d="M 13.1875 13.921875 
Q 13.1875 10.109375 15.96875 7.90625 
Q 18.75 5.71875 22.5625 5.71875 
Q 27.203125 5.71875 31.546875 7.859375 
Q 38.875 11.421875 38.875 19.53125 
L 38.875 26.609375 
Q 37.25 25.59375 34.703125 24.90625 
Q 32.171875 24.21875 29.734375 23.921875 
L 24.421875 23.25 
Q 19.625 22.609375 17.234375 21.234375 
Q 13.1875 18.953125 13.1875 13.921875 
z
M 34.46875 31.6875 
Q 37.5 32.078125 38.53125 34.234375 
Q 39.109375 35.40625 39.109375 37.59375 
Q 39.109375 42.09375 35.90625 44.109375 
Q 32.71875 46.140625 26.765625 46.140625 
Q 19.875 46.140625 17 42.4375 
Q 15.375 40.375 14.890625 36.328125 
L 6.6875 36.328125 
Q 6.9375 46 12.96875 49.78125 
Q 19 53.5625 26.953125 53.5625 
Q 36.1875 53.5625 41.9375 50.046875 
Q 47.65625 46.53125 47.65625 39.109375 
L 47.65625 8.984375 
Q 47.65625 7.625 48.21875 6.78125 
Q 48.78125 5.953125 50.59375 5.953125 
Q 51.171875 5.953125 51.90625 6.03125 
Q 52.640625 6.109375 53.46875 6.25 
L 53.46875 -0.25 
Q 51.421875 -0.828125 50.34375 -0.96875 
Q 49.265625 -1.125 47.40625 -1.125 
Q 42.875 -1.125 40.828125 2.09375 
Q 39.75 3.8125 39.3125 6.9375 
Q 36.625 3.421875 31.59375 0.828125 
Q 26.5625 -1.765625 20.515625 -1.765625 
Q 13.234375 -1.765625 8.609375 2.65625 
Q 4 7.078125 4 13.71875 
Q 4 21 8.546875 25 
Q 13.09375 29 20.453125 29.9375 
z
M 27.203125 53.5625 
z
" id="Helvetica-97"/>
      <path d="M 8.203125 66.890625 
L 17.09375 66.890625 
L 17.09375 52.296875 
L 25.4375 52.296875 
L 25.4375 45.125 
L 17.09375 45.125 
L 17.09375 10.984375 
Q 17.09375 8.25 18.953125 7.328125 
Q 19.96875 6.78125 22.359375 6.78125 
Q 23 6.78125 23.734375 6.8125 
Q 24.46875 6.84375 25.4375 6.9375 
L 25.4375 0 
Q 23.921875 -0.4375 22.28125 -0.625 
Q 20.65625 -0.828125 18.75 -0.828125 
Q 12.59375 -0.828125 10.390625 2.3125 
Q 8.203125 5.46875 8.203125 10.5 
L 8.203125 45.125 
L 1.125 45.125 
L 1.125 52.296875 
L 8.203125 52.296875 
z
" id="Helvetica-116"/>
      <path d="M 28.21875 53.46875 
Q 33.796875 53.46875 39.015625 50.859375 
Q 44.234375 48.25 46.96875 44.09375 
Q 49.609375 40.140625 50.484375 34.859375 
Q 51.265625 31.25 51.265625 23.34375 
L 12.9375 23.34375 
Q 13.1875 15.375 16.703125 10.5625 
Q 20.21875 5.765625 27.59375 5.765625 
Q 34.46875 5.765625 38.578125 10.296875 
Q 40.921875 12.9375 41.890625 16.40625 
L 50.53125 16.40625 
Q 50.203125 13.53125 48.265625 9.984375 
Q 46.34375 6.453125 43.953125 4.203125 
Q 39.9375 0.296875 34.03125 -1.078125 
Q 30.859375 -1.859375 26.859375 -1.859375 
Q 17.09375 -1.859375 10.296875 5.25 
Q 3.515625 12.359375 3.515625 25.140625 
Q 3.515625 37.75 10.34375 45.609375 
Q 17.1875 53.46875 28.21875 53.46875 
z
M 42.234375 30.328125 
Q 41.703125 36.03125 39.75 39.453125 
Q 36.140625 45.796875 27.6875 45.796875 
Q 21.625 45.796875 17.515625 41.421875 
Q 13.421875 37.0625 13.1875 30.328125 
z
M 27.390625 53.5625 
z
" id="Helvetica-101"/>
      <path d="M 6.6875 52.296875 
L 15.046875 52.296875 
L 15.046875 43.265625 
Q 16.0625 45.90625 20.0625 49.6875 
Q 24.078125 53.46875 29.296875 53.46875 
Q 29.546875 53.46875 30.125 53.421875 
Q 30.71875 53.375 32.125 53.21875 
L 32.125 43.953125 
Q 31.34375 44.09375 30.6875 44.140625 
Q 30.03125 44.1875 29.25 44.1875 
Q 22.609375 44.1875 19.046875 39.90625 
Q 15.484375 35.640625 15.484375 30.078125 
L 15.484375 0 
L 6.6875 0 
z
" id="Helvetica-114"/>
      <path d="M 6.6875 71.734375 
L 15.484375 71.734375 
L 15.484375 0 
L 6.6875 0 
z
" id="Helvetica-108"/>
      <path id="Helvetica-32"/>
      <path d="M 35.15625 8.296875 
Q 40.09375 8.296875 43.265625 9.328125 
Q 48.921875 11.234375 52.546875 16.65625 
Q 55.421875 21 56.6875 27.78125 
Q 57.421875 31.84375 57.421875 35.296875 
Q 57.421875 48.640625 52.125 56 
Q 46.828125 63.375 35.0625 63.375 
L 17.828125 63.375 
L 17.828125 8.296875 
z
M 8.0625 71.734375 
L 37.109375 71.734375 
Q 51.90625 71.734375 60.0625 61.234375 
Q 67.328125 51.765625 67.328125 36.96875 
Q 67.328125 25.53125 63.03125 16.3125 
Q 55.46875 0 37.015625 0 
L 8.0625 0 
z
" id="Helvetica-68"/>
      <path d="M 6.453125 52.046875 
L 15.375 52.046875 
L 15.375 0 
L 6.453125 0 
z
M 6.453125 71.734375 
L 15.375 71.734375 
L 15.375 61.765625 
L 6.453125 61.765625 
z
" id="Helvetica-105"/>
      <path d="M 11.671875 16.40625 
Q 12.0625 12.015625 13.875 9.671875 
Q 17.1875 5.421875 25.390625 5.421875 
Q 30.28125 5.421875 33.984375 7.546875 
Q 37.703125 9.671875 37.703125 14.109375 
Q 37.703125 17.484375 34.71875 19.234375 
Q 32.8125 20.3125 27.203125 21.734375 
L 20.21875 23.484375 
Q 13.53125 25.140625 10.359375 27.203125 
Q 4.6875 30.765625 4.6875 37.0625 
Q 4.6875 44.484375 10.03125 49.0625 
Q 15.375 53.65625 24.421875 53.65625 
Q 36.234375 53.65625 41.453125 46.734375 
Q 44.734375 42.328125 44.625 37.25 
L 36.328125 37.25 
Q 36.078125 40.234375 34.234375 42.671875 
Q 31.203125 46.140625 23.734375 46.140625 
Q 18.75 46.140625 16.1875 44.234375 
Q 13.625 42.328125 13.625 39.203125 
Q 13.625 35.796875 17 33.734375 
Q 18.953125 32.515625 22.75 31.59375 
L 28.5625 30.171875 
Q 38.03125 27.875 41.265625 25.734375 
Q 46.390625 22.359375 46.390625 15.140625 
Q 46.390625 8.15625 41.09375 3.078125 
Q 35.796875 -2 24.953125 -2 
Q 13.28125 -2 8.421875 3.296875 
Q 3.5625 8.59375 3.21875 16.40625 
z
M 24.65625 53.5625 
z
" id="Helvetica-115"/>
      <path d="M 6.453125 52.296875 
L 14.796875 52.296875 
L 14.796875 44.875 
Q 18.5 49.46875 22.65625 51.46875 
Q 26.8125 53.46875 31.890625 53.46875 
Q 43.015625 53.46875 46.921875 45.703125 
Q 49.078125 41.453125 49.078125 33.546875 
L 49.078125 0 
L 40.140625 0 
L 40.140625 32.953125 
Q 40.140625 37.75 38.71875 40.671875 
Q 36.375 45.5625 30.21875 45.5625 
Q 27.09375 45.5625 25.09375 44.921875 
Q 21.484375 43.84375 18.75 40.625 
Q 16.546875 38.03125 15.890625 35.265625 
Q 15.234375 32.515625 15.234375 27.390625 
L 15.234375 0 
L 6.453125 0 
z
M 27.09375 53.5625 
z
" id="Helvetica-110"/>
      <path d="M 26.609375 53.8125 
Q 35.453125 53.8125 40.984375 49.515625 
Q 46.53125 45.21875 47.65625 34.71875 
L 39.109375 34.71875 
Q 38.328125 39.546875 35.546875 42.75 
Q 32.765625 45.953125 26.609375 45.953125 
Q 18.21875 45.953125 14.59375 37.75 
Q 12.25 32.421875 12.25 24.609375 
Q 12.25 16.75 15.5625 11.375 
Q 18.890625 6 26.03125 6 
Q 31.5 6 34.6875 9.34375 
Q 37.890625 12.703125 39.109375 18.5 
L 47.65625 18.5 
Q 46.1875 8.109375 40.328125 3.296875 
Q 34.46875 -1.515625 25.34375 -1.515625 
Q 15.09375 -1.515625 8.984375 5.984375 
Q 2.875 13.484375 2.875 24.703125 
Q 2.875 38.484375 9.5625 46.140625 
Q 16.265625 53.8125 26.609375 53.8125 
z
M 25.25 53.5625 
z
" id="Helvetica-99"/>
      <path d="M 29.59375 72.90625 
Q 21.921875 58.015625 19.625 50.984375 
Q 16.15625 40.28125 16.15625 26.265625 
Q 16.15625 12.109375 20.125 0.390625 
Q 22.5625 -6.84375 29.734375 -20.40625 
L 23.828125 -20.40625 
Q 16.703125 -9.28125 14.984375 -6.203125 
Q 13.28125 -3.125 11.28125 2.15625 
Q 8.546875 9.375 7.46875 17.578125 
Q 6.9375 21.828125 6.9375 25.6875 
Q 6.9375 40.140625 11.46875 51.421875 
Q 14.359375 58.59375 23.484375 72.90625 
z
" id="Helvetica-40"/>
      <path d="M -1.3125 -20.796875 
L 13.375 54.6875 
L 22.40625 54.6875 
L 15.765625 20.65625 
Q 15.578125 19.625 15.421875 18.359375 
Q 15.28125 17.09375 15.28125 15.828125 
Q 15.28125 11.28125 18.140625 8.828125 
Q 21 6.390625 26.3125 6.390625 
Q 33.546875 6.390625 37.984375 10.484375 
Q 42.4375 14.59375 44 22.796875 
L 50.203125 54.6875 
L 59.1875 54.6875 
L 51.03125 12.640625 
Q 50.828125 11.71875 50.75 11.03125 
Q 50.6875 10.359375 50.6875 9.8125 
Q 50.6875 8.296875 51.296875 7.59375 
Q 51.90625 6.890625 53.21875 6.890625 
Q 53.71875 6.890625 54.5625 7.125 
Q 55.421875 7.375 56.984375 8.015625 
L 55.609375 0.78125 
Q 53.46875 -0.296875 51.515625 -0.859375 
Q 49.5625 -1.421875 47.703125 -1.421875 
Q 44.484375 -1.421875 42.65625 0.625 
Q 40.828125 2.6875 40.828125 6.296875 
Q 38.09375 2.390625 34.296875 0.484375 
Q 30.515625 -1.421875 25.390625 -1.421875 
Q 20.84375 -1.421875 17.453125 0.671875 
Q 14.0625 2.78125 12.984375 6.203125 
L 7.71875 -20.796875 
z
" id="DejaVuSans-Oblique-956"/>
      <path d="M 6.453125 52.296875 
L 15.140625 52.296875 
L 15.140625 44.875 
Q 18.265625 48.734375 20.796875 50.484375 
Q 25.140625 53.46875 30.671875 53.46875 
Q 36.921875 53.46875 40.71875 50.390625 
Q 42.875 48.640625 44.625 45.21875 
Q 47.5625 49.421875 51.515625 51.4375 
Q 55.46875 53.46875 60.40625 53.46875 
Q 70.953125 53.46875 74.75 45.84375 
Q 76.8125 41.75 76.8125 34.8125 
L 76.8125 0 
L 67.671875 0 
L 67.671875 36.328125 
Q 67.671875 41.546875 65.0625 43.5 
Q 62.453125 45.453125 58.6875 45.453125 
Q 53.515625 45.453125 49.78125 41.984375 
Q 46.046875 38.53125 46.046875 30.421875 
L 46.046875 0 
L 37.109375 0 
L 37.109375 34.125 
Q 37.109375 39.453125 35.84375 41.890625 
Q 33.84375 45.5625 28.375 45.5625 
Q 23.390625 45.5625 19.3125 41.703125 
Q 15.234375 37.84375 15.234375 27.734375 
L 15.234375 0 
L 6.453125 0 
z
" id="Helvetica-109"/>
      <path d="M 3.46875 -20.40625 
Q 11.234375 -5.28125 13.484375 1.65625 
Q 16.890625 12.15625 16.890625 26.265625 
Q 16.890625 40.375 12.9375 52.09375 
Q 10.5 59.328125 3.328125 72.90625 
L 9.234375 72.90625 
Q 16.75 60.890625 18.328125 58.078125 
Q 19.921875 55.28125 21.78125 50.34375 
Q 24.125 44.234375 25.125 38.28125 
Q 26.125 32.328125 26.125 26.8125 
Q 26.125 12.359375 21.53125 1.03125 
Q 18.65625 -6.25 9.578125 -20.40625 
z
" id="Helvetica-41"/>
     </defs>
     <g style="fill:#808080;" transform="translate(293.808 539.024914)scale(0.156 -0.156)">
      <use transform="translate(0 0.09375)" xlink:href="#Helvetica-76"/>
      <use transform="translate(55.615234 0.09375)" xlink:href="#Helvetica-97"/>
      <use transform="translate(111.230469 0.09375)" xlink:href="#Helvetica-116"/>
      <use transform="translate(139.013672 0.09375)" xlink:href="#Helvetica-101"/>
      <use transform="translate(194.628906 0.09375)" xlink:href="#Helvetica-114"/>
      <use transform="translate(227.929688 0.09375)" xlink:href="#Helvetica-97"/>
      <use transform="translate(283.544922 0.09375)" xlink:href="#Helvetica-108"/>
      <use transform="translate(305.761719 0.09375)" xlink:href="#Helvetica-32"/>
      <use transform="translate(333.544922 0.09375)" xlink:href="#Helvetica-68"/>
      <use transform="translate(405.761719 0.09375)" xlink:href="#Helvetica-105"/>
      <use transform="translate(427.978516 0.09375)" xlink:href="#Helvetica-115"/>
      <use transform="translate(477.978516 0.09375)" xlink:href="#Helvetica-116"/>
      <use transform="translate(505.761719 0.09375)" xlink:href="#Helvetica-97"/>
      <use transform="translate(561.376953 0.09375)" xlink:href="#Helvetica-110"/>
      <use transform="translate(616.992188 0.09375)" xlink:href="#Helvetica-99"/>
      <use transform="translate(666.992188 0.09375)" xlink:href="#Helvetica-101"/>
      <use transform="translate(722.607422 0.09375)" xlink:href="#Helvetica-32"/>
      <use transform="translate(750.390625 0.09375)" xlink:href="#Helvetica-40"/>
      <use transform="translate(783.691406 0.09375)" xlink:href="#DejaVuSans-Oblique-956"/>
      <use transform="translate(847.314453 0.09375)" xlink:href="#Helvetica-109"/>
      <use transform="translate(930.615234 0.09375)" xlink:href="#Helvetica-41"/>
     </g>
    </g>
   </g>
   <g id="matplotlib.axis_2">
    <g id="ytick_1">
     <g id="line2d_11"/>
     <g id="line2d_12"/>
     <g id="text_7">
      <!-- −20 -->
      <defs>
       <path d="M 55.421875 29.59375 
L 55.421875 21.390625 
L 4.5 21.390625 
L 4.5 29.59375 
z
" id="Helvetica-8722"/>
      </defs>
      <g style="fill:#3f3d46;" transform="translate(59.846187 470.906074)scale(0.1365 -0.1365)">
       <use xlink:href="#Helvetica-8722"/>
       <use x="58.398438" xlink:href="#Helvetica-50"/>
       <use x="114.013672" xlink:href="#Helvetica-48"/>
      </g>
     </g>
    </g>
    <g id="ytick_2">
     <g id="line2d_13"/>
     <g id="line2d_14"/>
     <g id="text_8">
      <!-- 0 -->
      <g style="fill:#3f3d46;" transform="translate(75.40932 419.422453)scale(0.1365 -0.1365)">
       <use xlink:href="#Helvetica-48"/>
      </g>
     </g>
    </g>
    <g id="ytick_3">
     <g id="line2d_15"/>
     <g id="line2d_16"/>
     <g id="text_9">
      <!-- 20 -->
      <g style="fill:#3f3d46;" transform="translate(67.818641 367.938832)scale(0.1365 -0.1365)">
       <use xlink:href="#Helvetica-50"/>
       <use x="55.615234" xlink:href="#Helvetica-48"/>
      </g>
     </g>
    </g>
    <g id="ytick_4">
     <g id="line2d_17"/>
     <g id="line2d_18"/>
     <g id="text_10">
      <!-- 40 -->
      <g style="fill:#3f3d46;" transform="translate(67.818641 316.455211)scale(0.1365 -0.1365)">
       <use xlink:href="#Helvetica-52"/>
       <use x="55.615234" xlink:href="#Helvetica-48"/>
      </g>
     </g>
    </g>
    <g id="ytick_5">
     <g id="line2d_19"/>
     <g id="line2d_20"/>
     <g id="text_11">
      <!-- 60 -->
      <g style="fill:#3f3d46;" transform="translate(67.818641 264.97159)scale(0.1365 -0.1365)">
       <use xlink:href="#Helvetica-54"/>
       <use x="55.615234" xlink:href="#Helvetica-48"/>
      </g>
     </g>
    </g>
    <g id="ytick_6">
     <g id="line2d_21"/>
     <g id="line2d_22"/>
     <g id="text_12">
      <!-- 80 -->
      <g style="fill:#3f3d46;" transform="translate(67.818641 213.487969)scale(0.1365 -0.1365)">
       <use xlink:href="#Helvetica-56"/>
       <use x="55.615234" xlink:href="#Helvetica-48"/>
      </g>
     </g>
    </g>
    <g id="ytick_7">
     <g id="line2d_23"/>
     <g id="line2d_24"/>
     <g id="text_13">
      <!-- 100 -->
      <g style="fill:#3f3d46;" transform="translate(60.227961 162.004347)scale(0.1365 -0.1365)">
       <use xlink:href="#Helvetica-49"/>
       <use x="55.615234" xlink:href="#Helvetica-48"/>
       <use x="111.230469" xlink:href="#Helvetica-48"/>
      </g>
     </g>
    </g>
    <g id="ytick_8">
     <g id="line2d_25"/>
     <g id="line2d_26"/>
     <g id="text_14">
      <!-- 120 -->
      <g style="fill:#3f3d46;" transform="translate(60.227961 110.520726)scale(0.1365 -0.1365)">
       <use xlink:href="#Helvetica-49"/>
       <use x="55.615234" xlink:href="#Helvetica-50"/>
       <use x="111.230469" xlink:href="#Helvetica-48"/>
      </g>
     </g>
    </g>
    <g id="text_15">
     <!-- Stylus Height (nm) -->
     <defs>
      <path d="M 13.96875 23.140625 
Q 14.3125 17.046875 16.84375 13.234375 
Q 21.6875 6.109375 33.890625 6.109375 
Q 39.359375 6.109375 43.84375 7.671875 
Q 52.546875 10.6875 52.546875 18.5 
Q 52.546875 24.359375 48.875 26.859375 
Q 45.171875 29.296875 37.25 31.109375 
L 27.546875 33.296875 
Q 18.015625 35.453125 14.0625 38.03125 
Q 7.234375 42.53125 7.234375 51.46875 
Q 7.234375 61.140625 13.921875 67.328125 
Q 20.609375 73.53125 32.859375 73.53125 
Q 44.140625 73.53125 52.015625 68.078125 
Q 59.90625 62.640625 59.90625 50.6875 
L 50.78125 50.6875 
Q 50.046875 56.453125 47.65625 59.515625 
Q 43.21875 65.140625 32.5625 65.140625 
Q 23.96875 65.140625 20.203125 61.515625 
Q 16.453125 57.90625 16.453125 53.125 
Q 16.453125 47.859375 20.84375 45.40625 
Q 23.734375 43.84375 33.890625 41.5 
L 43.953125 39.203125 
Q 51.21875 37.546875 55.171875 34.671875 
Q 62.015625 29.640625 62.015625 20.0625 
Q 62.015625 8.15625 53.34375 3.03125 
Q 44.671875 -2.09375 33.203125 -2.09375 
Q 19.828125 -2.09375 12.25 4.734375 
Q 4.6875 11.53125 4.828125 23.140625 
z
M 33.59375 73.6875 
z
" id="Helvetica-83"/>
      <path d="M 39.109375 52.296875 
L 48.828125 52.296875 
Q 46.96875 47.265625 40.578125 29.34375 
Q 35.796875 15.875 32.5625 7.375 
Q 24.953125 -12.640625 21.828125 -17.03125 
Q 18.703125 -21.4375 11.078125 -21.4375 
Q 9.234375 -21.4375 8.234375 -21.28125 
Q 7.234375 -21.140625 5.765625 -20.75 
L 5.765625 -12.75 
Q 8.0625 -13.375 9.078125 -13.515625 
Q 10.109375 -13.671875 10.890625 -13.671875 
Q 13.328125 -13.671875 14.46875 -12.859375 
Q 15.625 -12.0625 16.40625 -10.890625 
Q 16.65625 -10.5 18.15625 -6.875 
Q 19.671875 -3.265625 20.359375 -1.515625 
L 1.03125 52.296875 
L 10.984375 52.296875 
L 25 9.71875 
z
M 24.953125 53.5625 
z
" id="Helvetica-121"/>
      <path d="M 15.234375 52.296875 
L 15.234375 17.578125 
Q 15.234375 13.578125 16.5 11.03125 
Q 18.84375 6.34375 25.25 6.34375 
Q 34.421875 6.34375 37.75 14.546875 
Q 39.546875 18.953125 39.546875 26.609375 
L 39.546875 52.296875 
L 48.34375 52.296875 
L 48.34375 0 
L 40.046875 0 
L 40.140625 7.71875 
Q 38.421875 4.734375 35.890625 2.6875 
Q 30.859375 -1.421875 23.6875 -1.421875 
Q 12.5 -1.421875 8.453125 6.0625 
Q 6.25 10.0625 6.25 16.75 
L 6.25 52.296875 
z
M 27.296875 53.5625 
z
" id="Helvetica-117"/>
      <path d="M 7.859375 71.734375 
L 17.671875 71.734375 
L 17.671875 42.09375 
L 54.984375 42.09375 
L 54.984375 71.734375 
L 64.796875 71.734375 
L 64.796875 0 
L 54.984375 0 
L 54.984375 33.546875 
L 17.671875 33.546875 
L 17.671875 0 
L 7.859375 0 
z
" id="Helvetica-72"/>
      <path d="M 24.90625 53.21875 
Q 31.0625 53.21875 35.640625 50.203125 
Q 38.140625 48.484375 40.71875 45.21875 
L 40.71875 51.8125 
L 48.828125 51.8125 
L 48.828125 4.25 
Q 48.828125 -5.71875 45.90625 -11.46875 
Q 40.4375 -22.125 25.25 -22.125 
Q 16.796875 -22.125 11.03125 -18.328125 
Q 5.28125 -14.546875 4.59375 -6.5 
L 13.53125 -6.5 
Q 14.15625 -10.015625 16.0625 -11.921875 
Q 19.046875 -14.84375 25.4375 -14.84375 
Q 35.546875 -14.84375 38.671875 -7.71875 
Q 40.53125 -3.515625 40.375 7.28125 
Q 37.75 3.265625 34.03125 1.3125 
Q 30.328125 -0.640625 24.21875 -0.640625 
Q 15.71875 -0.640625 9.34375 5.390625 
Q 2.984375 11.421875 2.984375 25.34375 
Q 2.984375 38.484375 9.40625 45.84375 
Q 15.828125 53.21875 24.90625 53.21875 
z
M 40.71875 26.375 
Q 40.71875 36.078125 36.71875 40.765625 
Q 32.71875 45.453125 26.515625 45.453125 
Q 17.234375 45.453125 13.8125 36.765625 
Q 12.015625 32.125 12.015625 24.609375 
Q 12.015625 15.765625 15.59375 11.15625 
Q 19.1875 6.546875 25.25 6.546875 
Q 34.71875 6.546875 38.578125 15.09375 
Q 40.71875 19.921875 40.71875 26.375 
z
M 25.921875 53.5625 
z
" id="Helvetica-103"/>
      <path d="M 6.453125 71.96875 
L 15.234375 71.96875 
L 15.234375 45.21875 
Q 18.359375 49.171875 20.84375 50.78125 
Q 25.09375 53.5625 31.453125 53.5625 
Q 42.828125 53.5625 46.875 45.609375 
Q 49.078125 41.265625 49.078125 33.546875 
L 49.078125 0 
L 40.046875 0 
L 40.046875 32.953125 
Q 40.046875 38.71875 38.578125 41.40625 
Q 36.1875 45.703125 29.59375 45.703125 
Q 24.125 45.703125 19.671875 41.9375 
Q 15.234375 38.1875 15.234375 27.734375 
L 15.234375 0 
L 6.453125 0 
z
" id="Helvetica-104"/>
     </defs>
     <g style="fill:#808080;" transform="translate(52.394687 350.708906)rotate(-90)scale(0.156 -0.156)">
      <use xlink:href="#Helvetica-83"/>
      <use x="66.699219" xlink:href="#Helvetica-116"/>
      <use x="94.482422" xlink:href="#Helvetica-121"/>
      <use x="144.482422" xlink:href="#Helvetica-108"/>
      <use x="166.699219" xlink:href="#Helvetica-117"/>
      <use x="222.314453" xlink:href="#Helvetica-115"/>
      <use x="272.314453" xlink:href="#Helvetica-32"/>
      <use x="300.097656" xlink:href="#Helvetica-72"/>
      <use x="372.314453" xlink:href="#Helvetica-101"/>
      <use x="427.929688" xlink:href="#Helvetica-105"/>
      <use x="450.146484" xlink:href="#Helvetica-103"/>
      <use x="505.761719" xlink:href="#Helvetica-104"/>
      <use x="561.376953" xlink:href="#Helvetica-116"/>
      <use x="589.160156" xlink:href="#Helvetica-32"/>
      <use x="616.943359" xlink:href="#Helvetica-40"/>
      <use x="650.244141" xlink:href="#Helvetica-110"/>
      <use x="705.859375" xlink:href="#Helvetica-109"/>
      <use x="789.160156" xlink:href="#Helvetica-41"/>
     </g>
    </g>
   </g>
   <g id="line2d_27">
    <path clip-path="url(#p5ef6376909)" d="M 90 425.746227 
L 92.405173 428.838519 
L 94.810346 430.28988 
L 97.215519 430.207947 
L 99.620692 426.522224 
L 102.025865 425.246203 
L 104.431039 426.730004 
L 106.836212 427.160086 
L 109.241385 429.962658 
L 111.646558 428.524131 
L 114.051731 429.837216 
L 116.456904 430.772959 
L 121.26725 429.602517 
L 123.672418 428.013563 
L 126.077596 425.50229 
L 128.48277 426.7611 
L 130.887937 424.423808 
L 133.293116 421.675752 
L 135.698289 424.832539 
L 138.103456 426.741573 
L 140.508635 423.534473 
L 142.913814 425.468913 
L 145.31897 424.690105 
L 147.724127 429.073657 
L 150.129338 429.119362 
L 154.939652 428.556267 
L 157.344863 425.57205 
L 159.75002 425.502869 
L 162.155176 429.716664 
L 164.560388 425.731227 
L 166.965544 422.788277 
L 169.370701 423.165829 
L 171.775858 424.568781 
L 174.181069 423.636861 
L 176.586226 424.550033 
L 178.991383 423.819347 
L 181.396594 427.052009 
L 183.801751 427.99394 
L 186.206907 425.765783 
L 188.612064 427.531774 
L 191.017275 428.707871 
L 193.422432 426.302927 
L 195.827589 423.479465 
L 198.2328 427.364777 
L 200.637957 428.154028 
L 203.043114 427.884442 
L 205.448325 428.129293 
L 210.258638 429.675048 
L 212.663795 428.662934 
L 215.069006 429.247113 
L 217.474163 428.610971 
L 219.87932 428.621927 
L 222.284531 426.864513 
L 224.689688 429.987085 
L 227.094845 427.614117 
L 229.500056 424.95281 
L 231.905213 426.972909 
L 234.310369 424.599921 
L 236.715526 425.343393 
L 239.120737 430.137829 
L 241.525894 430.162742 
L 243.931051 429.776576 
L 246.336262 430.635724 
L 248.741419 430.223302 
L 251.146576 429.17108 
L 253.551787 425.539667 
L 255.956944 423.210623 
L 258.3621 426.749125 
L 260.767257 426.913623 
L 263.172468 425.991775 
L 265.577625 419.876227 
L 267.982782 422.623349 
L 270.387993 423.225875 
L 272.79315 422.321228 
L 275.198306 424.401174 
L 277.603463 423.390663 
L 280.008674 424.015412 
L 282.413831 425.105966 
L 284.819042 423.209032 
L 287.224199 425.485205 
L 289.629356 423.561156 
L 292.034513 425.409977 
L 294.439724 427.871986 
L 296.844881 427.388047 
L 299.250037 427.727626 
L 301.655194 426.406705 
L 304.060405 424.281325 
L 306.465562 426.633282 
L 308.870719 428.237344 
L 313.681087 425.284349 
L 316.086244 427.492343 
L 318.4914 429.888064 
L 320.896612 431.101991 
L 323.301768 428.705001 
L 325.706925 429.221667 
L 328.112136 429.209968 
L 330.517293 423.085247 
L 332.922504 416.40352 
L 335.327661 411.493321 
L 337.732818 410.530559 
L 340.137975 402.114223 
L 342.543131 398.440673 
L 344.948343 395.216192 
L 347.353499 393.389258 
L 349.758656 390.916175 
L 352.163867 381.592998 
L 354.569024 375.576622 
L 356.974235 368.106246 
L 359.379338 358.888104 
L 361.784549 350.389007 
L 364.189706 344.562709 
L 366.594862 339.0952 
L 369.000074 334.009519 
L 371.40523 326.289679 
L 373.810441 311.205827 
L 376.215598 306.144472 
L 378.620755 295.088931 
L 383.431069 280.367885 
L 385.83628 271.762449 
L 388.241436 257.50823 
L 390.646648 256.235375 
L 393.051804 258.79357 
L 395.456961 242.031636 
L 397.862172 239.472514 
L 400.267329 222.277216 
L 402.672486 214.635579 
L 405.077643 191.885482 
L 407.482854 205.678665 
L 409.888011 180.493341 
L 412.293167 166.535719 
L 414.698379 141.461059 
L 417.103535 140.907868 
L 419.508692 128.017914 
L 421.913849 121.048319 
L 424.31906 108.764841 
L 426.724217 88.887273 
L 429.129374 95.411792 
L 431.534585 127.902333 
L 433.939742 214.611588 
L 438.75011 456.488822 
L 441.155266 469.5861 
L 443.560423 469.463853 
L 445.96558 469.818137 
L 448.370791 468.457605 
L 450.775948 468.623485 
L 453.181105 470.655621 
L 455.586316 470.66028 
L 457.991473 472.826788 
L 460.396629 472.782152 
L 462.801786 473.369194 
L 465.206997 473.791746 
L 467.612154 474.488551 
L 470.017311 474.146906 
L 472.422522 475.117372 
L 474.827679 475.509909 
L 477.232836 475.67494 
L 479.638047 475.366887 
L 482.043204 475.602502 
L 484.44836 474.691088 
L 486.853517 474.749702 
L 489.258728 475.32812 
L 491.663885 475.521544 
L 494.069042 475.275813 
L 496.474253 475.403518 
L 498.87941 475.833149 
L 501.284566 475.857655 
L 503.689778 475.179719 
L 506.094934 475.435335 
L 508.500091 475.059788 
L 510.905302 475.323461 
L 513.310405 475.709511 
L 515.715616 475.468722 
L 518.120773 475.348533 
L 522.931141 475.953363 
L 525.336297 475.590249 
L 527.741509 475.935807 
L 530.146611 475.58057 
L 532.551822 475.890012 
L 534.956979 475.358393 
L 537.36219 475.354016 
L 539.767347 474.887575 
L 542.172558 474.759381 
L 544.577715 474.456039 
L 546.982872 474.832745 
L 549.388028 476.697276 
L 551.793185 477.564569 
L 554.198396 478.093434 
L 556.603553 478.285082 
L 559.008764 479.223371 
L 561.413921 479.234955 
L 563.819078 480.121528 
L 566.224235 480.501297 
L 568.629391 480.697836 
L 571.034603 481.595994 
L 573.439759 481.427102 
L 575.844971 482.262063 
L 578.250127 482.071187 
L 580.655284 482.520331 
L 583.060441 482.811213 
L 585.465652 482.862388 
L 587.870809 483.178935 
L 590.275966 483.926451 
L 592.681177 483.627022 
L 595.086333 483.778899 
L 597.49149 484.232727 
L 599.896647 483.957367 
L 602.301858 483.874067 
L 604.707015 483.47996 
L 607.112226 483.550003 
L 609.517383 483.826908 
L 611.922485 483.210829 
L 616.732853 482.485296 
L 619.138064 483.123847 
L 621.543221 482.803902 
L 623.948432 483.018975 
L 626.353589 483.69372 
L 628.758746 483.871982 
L 631.163903 483.768654 
L 633.568842 483.793546 
L 635.974488 483.243032 
L 638.379591 483.649469 
L 640.784693 483.182307 
L 643.189795 483.100345 
L 645.594898 482.410722 
L 648 482.460378 
L 648 482.460378 
" style="fill:none;stroke:#3572c6;stroke-linecap:square;stroke-width:1.5;"/>
   </g>
   <g id="patch_3">
    <path d="M 90 504 
L 90 69.12 
" style="fill:none;"/>
   </g>
   <g id="patch_4">
    <path d="M 648 504 
L 648 69.12 
" style="fill:none;"/>
   </g>
   <g id="patch_5">
    <path d="M 90 504 
L 648 504 
" style="fill:none;"/>
   </g>
   <g id="patch_6">
    <path d="M 90 69.12 
L 648 69.12 
" style="fill:none;"/>
   </g>
   <g id="text_16">
    <!-- AFM Step Analaysis -->
    <defs>
     <path d="M 44.4375 29.390625 
L 33.546875 61.078125 
L 21.96875 29.390625 
z
M 28.46875 71.734375 
L 39.453125 71.734375 
L 65.484375 0 
L 54.828125 0 
L 47.5625 21.484375 
L 19.1875 21.484375 
L 11.421875 0 
L 1.46875 0 
z
M 33.5 71.734375 
z
" id="Helvetica-65"/>
     <path d="M 8.546875 71.734375 
L 58.296875 71.734375 
L 58.296875 62.9375 
L 18.265625 62.9375 
L 18.265625 41.15625 
L 53.46875 41.15625 
L 53.46875 32.625 
L 18.265625 32.625 
L 18.265625 0 
L 8.546875 0 
z
" id="Helvetica-70"/>
     <path d="M 7.375 71.734375 
L 21.296875 71.734375 
L 41.890625 11.078125 
L 62.359375 71.734375 
L 76.125 71.734375 
L 76.125 0 
L 66.890625 0 
L 66.890625 42.328125 
Q 66.890625 44.53125 66.984375 49.609375 
Q 67.09375 54.6875 67.09375 60.5 
L 46.625 0 
L 37.015625 0 
L 16.40625 60.5 
L 16.40625 58.296875 
Q 16.40625 55.671875 16.53125 50.265625 
Q 16.65625 44.875 16.65625 42.328125 
L 16.65625 0 
L 7.375 0 
z
" id="Helvetica-77"/>
     <path d="M 28.515625 5.90625 
Q 34.671875 5.90625 38.75 11.0625 
Q 42.828125 16.21875 42.828125 26.46875 
Q 42.828125 32.71875 41.015625 37.203125 
Q 37.59375 45.84375 28.515625 45.84375 
Q 19.390625 45.84375 16.015625 36.71875 
Q 14.203125 31.84375 14.203125 24.3125 
Q 14.203125 18.265625 16.015625 14.015625 
Q 19.4375 5.90625 28.515625 5.90625 
z
M 5.765625 52.046875 
L 14.3125 52.046875 
L 14.3125 45.125 
Q 16.9375 48.6875 20.0625 50.640625 
Q 24.515625 53.5625 30.515625 53.5625 
Q 39.40625 53.5625 45.609375 46.75 
Q 51.8125 39.9375 51.8125 27.296875 
Q 51.8125 10.203125 42.875 2.875 
Q 37.203125 -1.765625 29.6875 -1.765625 
Q 23.78125 -1.765625 19.78125 0.828125 
Q 17.4375 2.296875 14.546875 5.859375 
L 14.546875 -20.84375 
L 5.765625 -20.84375 
z
" id="Helvetica-112"/>
    </defs>
    <g style="fill:#808080;" transform="translate(298.775625 63.12)scale(0.156 -0.156)">
     <use xlink:href="#Helvetica-65"/>
     <use x="66.699219" xlink:href="#Helvetica-70"/>
     <use x="127.783203" xlink:href="#Helvetica-77"/>
     <use x="211.083984" xlink:href="#Helvetica-32"/>
     <use x="238.867188" xlink:href="#Helvetica-83"/>
     <use x="305.566406" xlink:href="#Helvetica-116"/>
     <use x="333.349609" xlink:href="#Helvetica-101"/>
     <use x="388.964844" xlink:href="#Helvetica-112"/>
     <use x="444.580078" xlink:href="#Helvetica-32"/>
     <use x="472.363281" xlink:href="#Helvetica-65"/>
     <use x="539.0625" xlink:href="#Helvetica-110"/>
     <use x="594.677734" xlink:href="#Helvetica-97"/>
     <use x="650.292969" xlink:href="#Helvetica-108"/>
     <use x="672.509766" xlink:href="#Helvetica-97"/>
     <use x="728.125" xlink:href="#Helvetica-121"/>
     <use x="778.125" xlink:href="#Helvetica-115"/>
     <use x="828.125" xlink:href="#Helvetica-105"/>
     <use x="850.341797" xlink:href="#Helvetica-115"/>
    </g>
   </g>
   <g id="legend_1">
    <g id="patch_7">
     <path d="M 553.04932 99.815438 
L 638.445 99.815438 
Q 641.175 99.815438 641.175 97.085438 
L 641.175 78.675 
Q 641.175 75.945 638.445 75.945 
L 553.04932 75.945 
Q 550.31932 75.945 550.31932 78.675 
L 550.31932 97.085438 
Q 550.31932 99.815438 553.04932 99.815438 
z
" style="fill:none;opacity:0;"/>
    </g>
    <g id="line2d_28">
     <path d="M 555.77932 86.557875 
L 583.07932 86.557875 
" style="fill:none;stroke:#3572c6;stroke-linecap:square;stroke-width:1.5;"/>
    </g>
    <g id="line2d_29"/>
    <g id="text_17">
     <!-- Ag film -->
     <defs>
      <path d="M 8.640625 60.25 
Q 8.84375 65.71875 10.546875 68.265625 
Q 13.625 72.75 22.40625 72.75 
Q 23.25 72.75 24.125 72.703125 
Q 25 72.65625 26.125 72.5625 
L 26.125 64.546875 
Q 24.75 64.65625 24.140625 64.671875 
Q 23.53125 64.703125 23 64.703125 
Q 19 64.703125 18.21875 62.625 
Q 17.4375 60.546875 17.4375 52.046875 
L 26.125 52.046875 
L 26.125 45.125 
L 17.328125 45.125 
L 17.328125 0 
L 8.640625 0 
L 8.640625 45.125 
L 1.375 45.125 
L 1.375 52.046875 
L 8.640625 52.046875 
L 8.640625 60.25 
z
" id="Helvetica-102"/>
     </defs>
     <g style="fill:#808080;" transform="translate(593.99932 91.335375)scale(0.1365 -0.1365)">
      <use xlink:href="#Helvetica-65"/>
      <use x="66.699219" xlink:href="#Helvetica-103"/>
      <use x="122.314453" xlink:href="#Helvetica-32"/>
      <use x="150.097656" xlink:href="#Helvetica-102"/>
      <use x="177.880859" xlink:href="#Helvetica-105"/>
      <use x="200.097656" xlink:href="#Helvetica-108"/>
      <use x="222.314453" xlink:href="#Helvetica-109"/>
     </g>
    </g>
   </g>
  </g>
 </g>
 <defs>
  <clipPath id="p5ef6376909">
   <rect height="434.88" width="558" x="90" y="69.12"/>
  </clipPath>
 </defs>
</svg>
