<?xml version="1.0" encoding="utf-8" standalone="no"?>
<!DOCTYPE svg PUBLIC "-//W3C//DTD SVG 1.1//EN"
  "http://www.w3.org/Graphics/SVG/1.1/DTD/svg11.dtd">
<!-- Created with matplotlib (https://matplotlib.org/) -->
<svg height="576pt" version="1.1" viewBox="0 0 720 576" width="720pt" xmlns="http://www.w3.org/2000/svg" xmlns:xlink="http://www.w3.org/1999/xlink">
 <defs>
  <style type="text/css">
*{stroke-linecap:butt;stroke-linejoin:round;white-space:pre;}
  </style>
 </defs>
 <g id="figure_1">
  <g id="patch_1">
   <path d="M 0 576 
L 720 576 
L 720 0 
L 0 0 
z
" style="fill:none;"/>
  </g>
  <g id="axes_1">
   <g id="patch_2">
    <path d="M 90 504 
L 648 504 
L 648 69.12 
L 90 69.12 
z
" style="fill:none;"/>
   </g>
   <g id="matplotlib.axis_1">
    <g id="xtick_1">
     <g id="line2d_1"/>
     <g id="line2d_2"/>
     <g id="text_1">
      <!-- 5 -->
      <defs>
       <path d="M 12.359375 17.828125 
Q 13.234375 10.296875 19.34375 7.421875 
Q 22.46875 5.953125 26.5625 5.953125 
Q 34.375 5.953125 38.125 10.9375 
Q 41.890625 15.921875 41.890625 21.96875 
Q 41.890625 29.296875 37.421875 33.296875 
Q 32.953125 37.3125 26.703125 37.3125 
Q 22.171875 37.3125 18.921875 35.546875 
Q 15.671875 33.796875 13.375 30.671875 
L 5.765625 31.109375 
L 11.078125 68.75 
L 47.40625 68.75 
L 47.40625 60.25 
L 17.671875 60.25 
L 14.703125 40.828125 
Q 17.140625 42.671875 19.34375 43.609375 
Q 23.25 45.21875 28.375 45.21875 
Q 37.984375 45.21875 44.671875 39.015625 
Q 51.375 32.8125 51.375 23.296875 
Q 51.375 13.375 45.234375 5.796875 
Q 39.109375 -1.765625 25.6875 -1.765625 
Q 17.140625 -1.765625 10.5625 3.046875 
Q 4 7.859375 3.21875 17.828125 
z
" id="Helvetica-53"/>
      </defs>
      <g style="fill:#808080;" transform="translate(178.118965 520.791742)scale(0.1365 -0.1365)">
       <use xlink:href="#Helvetica-53"/>
      </g>
     </g>
    </g>
    <g id="xtick_2">
     <g id="line2d_3"/>
     <g id="line2d_4"/>
     <g id="text_2">
      <!-- 10 -->
      <defs>
       <path d="M 9.578125 49.515625 
L 9.578125 56.25 
Q 19.09375 57.171875 22.84375 59.34375 
Q 26.609375 61.53125 28.46875 69.625 
L 35.40625 69.625 
L 35.40625 0 
L 26.03125 0 
L 26.03125 49.515625 
z
" id="Helvetica-49"/>
       <path d="M 27.046875 69.921875 
Q 40.625 69.921875 46.6875 58.734375 
Q 51.375 50.09375 51.375 35.0625 
Q 51.375 20.796875 47.125 11.46875 
Q 40.96875 -1.90625 27 -1.90625 
Q 14.40625 -1.90625 8.25 9.03125 
Q 3.125 18.171875 3.125 33.546875 
Q 3.125 45.453125 6.203125 54 
Q 11.96875 69.921875 27.046875 69.921875 
z
M 26.953125 6.109375 
Q 33.796875 6.109375 37.84375 12.15625 
Q 41.890625 18.21875 41.890625 34.71875 
Q 41.890625 46.625 38.953125 54.3125 
Q 36.03125 62.015625 27.59375 62.015625 
Q 19.828125 62.015625 16.234375 54.703125 
Q 12.640625 47.40625 12.640625 33.203125 
Q 12.640625 22.515625 14.9375 16.015625 
Q 18.453125 6.109375 26.953125 6.109375 
z
" id="Helvetica-48"/>
      </defs>
      <g style="fill:#808080;" transform="translate(266.961665 520.791742)scale(0.1365 -0.1365)">
       <use xlink:href="#Helvetica-49"/>
       <use x="55.615234" xlink:href="#Helvetica-48"/>
      </g>
     </g>
    </g>
    <g id="xtick_3">
     <g id="line2d_5"/>
     <g id="line2d_6"/>
     <g id="text_3">
      <!-- 15 -->
      <g style="fill:#808080;" transform="translate(359.599705 520.791742)scale(0.1365 -0.1365)">
       <use xlink:href="#Helvetica-49"/>
       <use x="55.615234" xlink:href="#Helvetica-53"/>
      </g>
     </g>
    </g>
    <g id="xtick_4">
     <g id="line2d_7"/>
     <g id="line2d_8"/>
     <g id="text_4">
      <!-- 20 -->
      <defs>
       <path d="M 3.125 0 
Q 3.609375 9.03125 6.859375 15.71875 
Q 10.109375 22.40625 19.53125 27.875 
L 28.90625 33.296875 
Q 35.203125 36.96875 37.75 39.546875 
Q 41.75 43.609375 41.75 48.828125 
Q 41.75 54.9375 38.078125 58.515625 
Q 34.421875 62.109375 28.328125 62.109375 
Q 19.28125 62.109375 15.828125 55.28125 
Q 13.96875 51.609375 13.765625 45.125 
L 4.828125 45.125 
Q 4.984375 54.25 8.203125 60.015625 
Q 13.921875 70.171875 28.375 70.171875 
Q 40.375 70.171875 45.921875 63.671875 
Q 51.46875 57.171875 51.46875 49.21875 
Q 51.46875 40.828125 45.5625 34.859375 
Q 42.140625 31.390625 33.296875 26.46875 
L 26.609375 22.75 
Q 21.828125 20.125 19.09375 17.71875 
Q 14.203125 13.484375 12.9375 8.296875 
L 51.125 8.296875 
L 51.125 0 
L 3.125 0 
z
" id="Helvetica-50"/>
      </defs>
      <g style="fill:#808080;" transform="translate(452.237746 520.791742)scale(0.1365 -0.1365)">
       <use xlink:href="#Helvetica-50"/>
       <use x="55.615234" xlink:href="#Helvetica-48"/>
      </g>
     </g>
    </g>
    <g id="xtick_5">
     <g id="line2d_9"/>
     <g id="line2d_10"/>
     <g id="text_5">
      <!-- 25 -->
      <g style="fill:#808080;" transform="translate(544.875786 520.791742)scale(0.1365 -0.1365)">
       <use xlink:href="#Helvetica-50"/>
       <use x="55.615234" xlink:href="#Helvetica-53"/>
      </g>
     </g>
    </g>
    <g id="xtick_6">
     <g id="line2d_11"/>
     <g id="line2d_12"/>
     <g id="text_6">
      <!-- 30 -->
      <defs>
       <path d="M 25.984375 -1.90625 
Q 13.578125 -1.90625 7.984375 4.90625 
Q 2.390625 11.71875 2.390625 21.484375 
L 11.578125 21.484375 
Q 12.15625 14.703125 14.109375 11.625 
Q 17.53125 6.109375 26.46875 6.109375 
Q 33.40625 6.109375 37.59375 9.8125 
Q 41.796875 13.53125 41.796875 19.390625 
Q 41.796875 26.609375 37.375 29.484375 
Q 32.953125 32.375 25.09375 32.375 
Q 24.21875 32.375 23.3125 32.34375 
Q 22.40625 32.328125 21.484375 32.28125 
L 21.484375 40.046875 
Q 22.859375 39.890625 23.78125 39.84375 
Q 24.703125 39.796875 25.78125 39.796875 
Q 30.71875 39.796875 33.890625 41.359375 
Q 39.453125 44.09375 39.453125 51.125 
Q 39.453125 56.34375 35.734375 59.171875 
Q 32.03125 62.015625 27.09375 62.015625 
Q 18.3125 62.015625 14.9375 56.15625 
Q 13.09375 52.9375 12.84375 46.96875 
L 4.15625 46.96875 
Q 4.15625 54.78125 7.28125 60.25 
Q 12.640625 70.015625 26.171875 70.015625 
Q 36.859375 70.015625 42.71875 65.25 
Q 48.578125 60.5 48.578125 51.46875 
Q 48.578125 45.015625 45.125 41.015625 
Q 42.96875 38.53125 39.546875 37.109375 
Q 45.0625 35.59375 48.15625 31.265625 
Q 51.265625 26.953125 51.265625 20.703125 
Q 51.265625 10.6875 44.671875 4.390625 
Q 38.09375 -1.90625 25.984375 -1.90625 
z
" id="Helvetica-51"/>
      </defs>
      <g style="fill:#808080;" transform="translate(637.513826 520.791742)scale(0.1365 -0.1365)">
       <use xlink:href="#Helvetica-51"/>
       <use x="55.615234" xlink:href="#Helvetica-48"/>
      </g>
     </g>
    </g>
    <g id="text_7">
     <!-- Lateral Distance ($\mu$m) -->
     <defs>
      <path d="M 7.625 71.734375 
L 17.328125 71.734375 
L 17.328125 8.546875 
L 53.65625 8.546875 
L 53.65625 0 
L 7.625 0 
z
" id="Helvetica-76"/>
      <path d="M 13.1875 13.921875 
Q 13.1875 10.109375 15.96875 7.90625 
Q 18.75 5.71875 22.5625 5.71875 
Q 27.203125 5.71875 31.546875 7.859375 
Q 38.875 11.421875 38.875 19.53125 
L 38.875 26.609375 
Q 37.25 25.59375 34.703125 24.90625 
Q 32.171875 24.21875 29.734375 23.921875 
L 24.421875 23.25 
Q 19.625 22.609375 17.234375 21.234375 
Q 13.1875 18.953125 13.1875 13.921875 
z
M 34.46875 31.6875 
Q 37.5 32.078125 38.53125 34.234375 
Q 39.109375 35.40625 39.109375 37.59375 
Q 39.109375 42.09375 35.90625 44.109375 
Q 32.71875 46.140625 26.765625 46.140625 
Q 19.875 46.140625 17 42.4375 
Q 15.375 40.375 14.890625 36.328125 
L 6.6875 36.328125 
Q 6.9375 46 12.96875 49.78125 
Q 19 53.5625 26.953125 53.5625 
Q 36.1875 53.5625 41.9375 50.046875 
Q 47.65625 46.53125 47.65625 39.109375 
L 47.65625 8.984375 
Q 47.65625 7.625 48.21875 6.78125 
Q 48.78125 5.953125 50.59375 5.953125 
Q 51.171875 5.953125 51.90625 6.03125 
Q 52.640625 6.109375 53.46875 6.25 
L 53.46875 -0.25 
Q 51.421875 -0.828125 50.34375 -0.96875 
Q 49.265625 -1.125 47.40625 -1.125 
Q 42.875 -1.125 40.828125 2.09375 
Q 39.75 3.8125 39.3125 6.9375 
Q 36.625 3.421875 31.59375 0.828125 
Q 26.5625 -1.765625 20.515625 -1.765625 
Q 13.234375 -1.765625 8.609375 2.65625 
Q 4 7.078125 4 13.71875 
Q 4 21 8.546875 25 
Q 13.09375 29 20.453125 29.9375 
z
M 27.203125 53.5625 
z
" id="Helvetica-97"/>
      <path d="M 8.203125 66.890625 
L 17.09375 66.890625 
L 17.09375 52.296875 
L 25.4375 52.296875 
L 25.4375 45.125 
L 17.09375 45.125 
L 17.09375 10.984375 
Q 17.09375 8.25 18.953125 7.328125 
Q 19.96875 6.78125 22.359375 6.78125 
Q 23 6.78125 23.734375 6.8125 
Q 24.46875 6.84375 25.4375 6.9375 
L 25.4375 0 
Q 23.921875 -0.4375 22.28125 -0.625 
Q 20.65625 -0.828125 18.75 -0.828125 
Q 12.59375 -0.828125 10.390625 2.3125 
Q 8.203125 5.46875 8.203125 10.5 
L 8.203125 45.125 
L 1.125 45.125 
L 1.125 52.296875 
L 8.203125 52.296875 
z
" id="Helvetica-116"/>
      <path d="M 28.21875 53.46875 
Q 33.796875 53.46875 39.015625 50.859375 
Q 44.234375 48.25 46.96875 44.09375 
Q 49.609375 40.140625 50.484375 34.859375 
Q 51.265625 31.25 51.265625 23.34375 
L 12.9375 23.34375 
Q 13.1875 15.375 16.703125 10.5625 
Q 20.21875 5.765625 27.59375 5.765625 
Q 34.46875 5.765625 38.578125 10.296875 
Q 40.921875 12.9375 41.890625 16.40625 
L 50.53125 16.40625 
Q 50.203125 13.53125 48.265625 9.984375 
Q 46.34375 6.453125 43.953125 4.203125 
Q 39.9375 0.296875 34.03125 -1.078125 
Q 30.859375 -1.859375 26.859375 -1.859375 
Q 17.09375 -1.859375 10.296875 5.25 
Q 3.515625 12.359375 3.515625 25.140625 
Q 3.515625 37.75 10.34375 45.609375 
Q 17.1875 53.46875 28.21875 53.46875 
z
M 42.234375 30.328125 
Q 41.703125 36.03125 39.75 39.453125 
Q 36.140625 45.796875 27.6875 45.796875 
Q 21.625 45.796875 17.515625 41.421875 
Q 13.421875 37.0625 13.1875 30.328125 
z
M 27.390625 53.5625 
z
" id="Helvetica-101"/>
      <path d="M 6.6875 52.296875 
L 15.046875 52.296875 
L 15.046875 43.265625 
Q 16.0625 45.90625 20.0625 49.6875 
Q 24.078125 53.46875 29.296875 53.46875 
Q 29.546875 53.46875 30.125 53.421875 
Q 30.71875 53.375 32.125 53.21875 
L 32.125 43.953125 
Q 31.34375 44.09375 30.6875 44.140625 
Q 30.03125 44.1875 29.25 44.1875 
Q 22.609375 44.1875 19.046875 39.90625 
Q 15.484375 35.640625 15.484375 30.078125 
L 15.484375 0 
L 6.6875 0 
z
" id="Helvetica-114"/>
      <path d="M 6.6875 71.734375 
L 15.484375 71.734375 
L 15.484375 0 
L 6.6875 0 
z
" id="Helvetica-108"/>
      <path id="Helvetica-32"/>
      <path d="M 35.15625 8.296875 
Q 40.09375 8.296875 43.265625 9.328125 
Q 48.921875 11.234375 52.546875 16.65625 
Q 55.421875 21 56.6875 27.78125 
Q 57.421875 31.84375 57.421875 35.296875 
Q 57.421875 48.640625 52.125 56 
Q 46.828125 63.375 35.0625 63.375 
L 17.828125 63.375 
L 17.828125 8.296875 
z
M 8.0625 71.734375 
L 37.109375 71.734375 
Q 51.90625 71.734375 60.0625 61.234375 
Q 67.328125 51.765625 67.328125 36.96875 
Q 67.328125 25.53125 63.03125 16.3125 
Q 55.46875 0 37.015625 0 
L 8.0625 0 
z
" id="Helvetica-68"/>
      <path d="M 6.453125 52.046875 
L 15.375 52.046875 
L 15.375 0 
L 6.453125 0 
z
M 6.453125 71.734375 
L 15.375 71.734375 
L 15.375 61.765625 
L 6.453125 61.765625 
z
" id="Helvetica-105"/>
      <path d="M 11.671875 16.40625 
Q 12.0625 12.015625 13.875 9.671875 
Q 17.1875 5.421875 25.390625 5.421875 
Q 30.28125 5.421875 33.984375 7.546875 
Q 37.703125 9.671875 37.703125 14.109375 
Q 37.703125 17.484375 34.71875 19.234375 
Q 32.8125 20.3125 27.203125 21.734375 
L 20.21875 23.484375 
Q 13.53125 25.140625 10.359375 27.203125 
Q 4.6875 30.765625 4.6875 37.0625 
Q 4.6875 44.484375 10.03125 49.0625 
Q 15.375 53.65625 24.421875 53.65625 
Q 36.234375 53.65625 41.453125 46.734375 
Q 44.734375 42.328125 44.625 37.25 
L 36.328125 37.25 
Q 36.078125 40.234375 34.234375 42.671875 
Q 31.203125 46.140625 23.734375 46.140625 
Q 18.75 46.140625 16.1875 44.234375 
Q 13.625 42.328125 13.625 39.203125 
Q 13.625 35.796875 17 33.734375 
Q 18.953125 32.515625 22.75 31.59375 
L 28.5625 30.171875 
Q 38.03125 27.875 41.265625 25.734375 
Q 46.390625 22.359375 46.390625 15.140625 
Q 46.390625 8.15625 41.09375 3.078125 
Q 35.796875 -2 24.953125 -2 
Q 13.28125 -2 8.421875 3.296875 
Q 3.5625 8.59375 3.21875 16.40625 
z
M 24.65625 53.5625 
z
" id="Helvetica-115"/>
      <path d="M 6.453125 52.296875 
L 14.796875 52.296875 
L 14.796875 44.875 
Q 18.5 49.46875 22.65625 51.46875 
Q 26.8125 53.46875 31.890625 53.46875 
Q 43.015625 53.46875 46.921875 45.703125 
Q 49.078125 41.453125 49.078125 33.546875 
L 49.078125 0 
L 40.140625 0 
L 40.140625 32.953125 
Q 40.140625 37.75 38.71875 40.671875 
Q 36.375 45.5625 30.21875 45.5625 
Q 27.09375 45.5625 25.09375 44.921875 
Q 21.484375 43.84375 18.75 40.625 
Q 16.546875 38.03125 15.890625 35.265625 
Q 15.234375 32.515625 15.234375 27.390625 
L 15.234375 0 
L 6.453125 0 
z
M 27.09375 53.5625 
z
" id="Helvetica-110"/>
      <path d="M 26.609375 53.8125 
Q 35.453125 53.8125 40.984375 49.515625 
Q 46.53125 45.21875 47.65625 34.71875 
L 39.109375 34.71875 
Q 38.328125 39.546875 35.546875 42.75 
Q 32.765625 45.953125 26.609375 45.953125 
Q 18.21875 45.953125 14.59375 37.75 
Q 12.25 32.421875 12.25 24.609375 
Q 12.25 16.75 15.5625 11.375 
Q 18.890625 6 26.03125 6 
Q 31.5 6 34.6875 9.34375 
Q 37.890625 12.703125 39.109375 18.5 
L 47.65625 18.5 
Q 46.1875 8.109375 40.328125 3.296875 
Q 34.46875 -1.515625 25.34375 -1.515625 
Q 15.09375 -1.515625 8.984375 5.984375 
Q 2.875 13.484375 2.875 24.703125 
Q 2.875 38.484375 9.5625 46.140625 
Q 16.265625 53.8125 26.609375 53.8125 
z
M 25.25 53.5625 
z
" id="Helvetica-99"/>
      <path d="M 29.59375 72.90625 
Q 21.921875 58.015625 19.625 50.984375 
Q 16.15625 40.28125 16.15625 26.265625 
Q 16.15625 12.109375 20.125 0.390625 
Q 22.5625 -6.84375 29.734375 -20.40625 
L 23.828125 -20.40625 
Q 16.703125 -9.28125 14.984375 -6.203125 
Q 13.28125 -3.125 11.28125 2.15625 
Q 8.546875 9.375 7.46875 17.578125 
Q 6.9375 21.828125 6.9375 25.6875 
Q 6.9375 40.140625 11.46875 51.421875 
Q 14.359375 58.59375 23.484375 72.90625 
z
" id="Helvetica-40"/>
      <path d="M -1.3125 -20.796875 
L 13.375 54.6875 
L 22.40625 54.6875 
L 15.765625 20.65625 
Q 15.578125 19.625 15.421875 18.359375 
Q 15.28125 17.09375 15.28125 15.828125 
Q 15.28125 11.28125 18.140625 8.828125 
Q 21 6.390625 26.3125 6.390625 
Q 33.546875 6.390625 37.984375 10.484375 
Q 42.4375 14.59375 44 22.796875 
L 50.203125 54.6875 
L 59.1875 54.6875 
L 51.03125 12.640625 
Q 50.828125 11.71875 50.75 11.03125 
Q 50.6875 10.359375 50.6875 9.8125 
Q 50.6875 8.296875 51.296875 7.59375 
Q 51.90625 6.890625 53.21875 6.890625 
Q 53.71875 6.890625 54.5625 7.125 
Q 55.421875 7.375 56.984375 8.015625 
L 55.609375 0.78125 
Q 53.46875 -0.296875 51.515625 -0.859375 
Q 49.5625 -1.421875 47.703125 -1.421875 
Q 44.484375 -1.421875 42.65625 0.625 
Q 40.828125 2.6875 40.828125 6.296875 
Q 38.09375 2.390625 34.296875 0.484375 
Q 30.515625 -1.421875 25.390625 -1.421875 
Q 20.84375 -1.421875 17.453125 0.671875 
Q 14.0625 2.78125 12.984375 6.203125 
L 7.71875 -20.796875 
z
" id="DejaVuSans-Oblique-956"/>
      <path d="M 6.453125 52.296875 
L 15.140625 52.296875 
L 15.140625 44.875 
Q 18.265625 48.734375 20.796875 50.484375 
Q 25.140625 53.46875 30.671875 53.46875 
Q 36.921875 53.46875 40.71875 50.390625 
Q 42.875 48.640625 44.625 45.21875 
Q 47.5625 49.421875 51.515625 51.4375 
Q 55.46875 53.46875 60.40625 53.46875 
Q 70.953125 53.46875 74.75 45.84375 
Q 76.8125 41.75 76.8125 34.8125 
L 76.8125 0 
L 67.671875 0 
L 67.671875 36.328125 
Q 67.671875 41.546875 65.0625 43.5 
Q 62.453125 45.453125 58.6875 45.453125 
Q 53.515625 45.453125 49.78125 41.984375 
Q 46.046875 38.53125 46.046875 30.421875 
L 46.046875 0 
L 37.109375 0 
L 37.109375 34.125 
Q 37.109375 39.453125 35.84375 41.890625 
Q 33.84375 45.5625 28.375 45.5625 
Q 23.390625 45.5625 19.3125 41.703125 
Q 15.234375 37.84375 15.234375 27.734375 
L 15.234375 0 
L 6.453125 0 
z
" id="Helvetica-109"/>
      <path d="M 3.46875 -20.40625 
Q 11.234375 -5.28125 13.484375 1.65625 
Q 16.890625 12.15625 16.890625 26.265625 
Q 16.890625 40.375 12.9375 52.09375 
Q 10.5 59.328125 3.328125 72.90625 
L 9.234375 72.90625 
Q 16.75 60.890625 18.328125 58.078125 
Q 19.921875 55.28125 21.78125 50.34375 
Q 24.125 44.234375 25.125 38.28125 
Q 26.125 32.328125 26.125 26.8125 
Q 26.125 12.359375 21.53125 1.03125 
Q 18.65625 -6.25 9.578125 -20.40625 
z
" id="Helvetica-41"/>
     </defs>
     <g style="fill:#808080;" transform="translate(293.808 539.024914)scale(0.156 -0.156)">
      <use transform="translate(0 0.09375)" xlink:href="#Helvetica-76"/>
      <use transform="translate(55.615234 0.09375)" xlink:href="#Helvetica-97"/>
      <use transform="translate(111.230469 0.09375)" xlink:href="#Helvetica-116"/>
      <use transform="translate(139.013672 0.09375)" xlink:href="#Helvetica-101"/>
      <use transform="translate(194.628906 0.09375)" xlink:href="#Helvetica-114"/>
      <use transform="translate(227.929688 0.09375)" xlink:href="#Helvetica-97"/>
      <use transform="translate(283.544922 0.09375)" xlink:href="#Helvetica-108"/>
      <use transform="translate(305.761719 0.09375)" xlink:href="#Helvetica-32"/>
      <use transform="translate(333.544922 0.09375)" xlink:href="#Helvetica-68"/>
      <use transform="translate(405.761719 0.09375)" xlink:href="#Helvetica-105"/>
      <use transform="translate(427.978516 0.09375)" xlink:href="#Helvetica-115"/>
      <use transform="translate(477.978516 0.09375)" xlink:href="#Helvetica-116"/>
      <use transform="translate(505.761719 0.09375)" xlink:href="#Helvetica-97"/>
      <use transform="translate(561.376953 0.09375)" xlink:href="#Helvetica-110"/>
      <use transform="translate(616.992188 0.09375)" xlink:href="#Helvetica-99"/>
      <use transform="translate(666.992188 0.09375)" xlink:href="#Helvetica-101"/>
      <use transform="translate(722.607422 0.09375)" xlink:href="#Helvetica-32"/>
      <use transform="translate(750.390625 0.09375)" xlink:href="#Helvetica-40"/>
      <use transform="translate(783.691406 0.09375)" xlink:href="#DejaVuSans-Oblique-956"/>
      <use transform="translate(847.314453 0.09375)" xlink:href="#Helvetica-109"/>
      <use transform="translate(930.615234 0.09375)" xlink:href="#Helvetica-41"/>
     </g>
    </g>
   </g>
   <g id="matplotlib.axis_2">
    <g id="ytick_1">
     <g id="line2d_13"/>
     <g id="line2d_14"/>
     <g id="text_8">
      <!-- 0 -->
      <g style="fill:#3f3d46;" transform="translate(75.40932 483.752689)scale(0.1365 -0.1365)">
       <use xlink:href="#Helvetica-48"/>
      </g>
     </g>
    </g>
    <g id="ytick_2">
     <g id="line2d_15"/>
     <g id="line2d_16"/>
     <g id="text_9">
      <!-- 5 -->
      <g style="fill:#3f3d46;" transform="translate(75.40932 401.097665)scale(0.1365 -0.1365)">
       <use xlink:href="#Helvetica-53"/>
      </g>
     </g>
    </g>
    <g id="ytick_3">
     <g id="line2d_17"/>
     <g id="line2d_18"/>
     <g id="text_10">
      <!-- 10 -->
      <g style="fill:#3f3d46;" transform="translate(67.818641 318.442641)scale(0.1365 -0.1365)">
       <use xlink:href="#Helvetica-49"/>
       <use x="55.615234" xlink:href="#Helvetica-48"/>
      </g>
     </g>
    </g>
    <g id="ytick_4">
     <g id="line2d_19"/>
     <g id="line2d_20"/>
     <g id="text_11">
      <!-- 15 -->
      <g style="fill:#3f3d46;" transform="translate(67.818641 235.787616)scale(0.1365 -0.1365)">
       <use xlink:href="#Helvetica-49"/>
       <use x="55.615234" xlink:href="#Helvetica-53"/>
      </g>
     </g>
    </g>
    <g id="ytick_5">
     <g id="line2d_21"/>
     <g id="line2d_22"/>
     <g id="text_12">
      <!-- 20 -->
      <g style="fill:#3f3d46;" transform="translate(67.818641 153.132592)scale(0.1365 -0.1365)">
       <use xlink:href="#Helvetica-50"/>
       <use x="55.615234" xlink:href="#Helvetica-48"/>
      </g>
     </g>
    </g>
    <g id="text_13">
     <!-- Stylus Height (nm) -->
     <defs>
      <path d="M 13.96875 23.140625 
Q 14.3125 17.046875 16.84375 13.234375 
Q 21.6875 6.109375 33.890625 6.109375 
Q 39.359375 6.109375 43.84375 7.671875 
Q 52.546875 10.6875 52.546875 18.5 
Q 52.546875 24.359375 48.875 26.859375 
Q 45.171875 29.296875 37.25 31.109375 
L 27.546875 33.296875 
Q 18.015625 35.453125 14.0625 38.03125 
Q 7.234375 42.53125 7.234375 51.46875 
Q 7.234375 61.140625 13.921875 67.328125 
Q 20.609375 73.53125 32.859375 73.53125 
Q 44.140625 73.53125 52.015625 68.078125 
Q 59.90625 62.640625 59.90625 50.6875 
L 50.78125 50.6875 
Q 50.046875 56.453125 47.65625 59.515625 
Q 43.21875 65.140625 32.5625 65.140625 
Q 23.96875 65.140625 20.203125 61.515625 
Q 16.453125 57.90625 16.453125 53.125 
Q 16.453125 47.859375 20.84375 45.40625 
Q 23.734375 43.84375 33.890625 41.5 
L 43.953125 39.203125 
Q 51.21875 37.546875 55.171875 34.671875 
Q 62.015625 29.640625 62.015625 20.0625 
Q 62.015625 8.15625 53.34375 3.03125 
Q 44.671875 -2.09375 33.203125 -2.09375 
Q 19.828125 -2.09375 12.25 4.734375 
Q 4.6875 11.53125 4.828125 23.140625 
z
M 33.59375 73.6875 
z
" id="Helvetica-83"/>
      <path d="M 39.109375 52.296875 
L 48.828125 52.296875 
Q 46.96875 47.265625 40.578125 29.34375 
Q 35.796875 15.875 32.5625 7.375 
Q 24.953125 -12.640625 21.828125 -17.03125 
Q 18.703125 -21.4375 11.078125 -21.4375 
Q 9.234375 -21.4375 8.234375 -21.28125 
Q 7.234375 -21.140625 5.765625 -20.75 
L 5.765625 -12.75 
Q 8.0625 -13.375 9.078125 -13.515625 
Q 10.109375 -13.671875 10.890625 -13.671875 
Q 13.328125 -13.671875 14.46875 -12.859375 
Q 15.625 -12.0625 16.40625 -10.890625 
Q 16.65625 -10.5 18.15625 -6.875 
Q 19.671875 -3.265625 20.359375 -1.515625 
L 1.03125 52.296875 
L 10.984375 52.296875 
L 25 9.71875 
z
M 24.953125 53.5625 
z
" id="Helvetica-121"/>
      <path d="M 15.234375 52.296875 
L 15.234375 17.578125 
Q 15.234375 13.578125 16.5 11.03125 
Q 18.84375 6.34375 25.25 6.34375 
Q 34.421875 6.34375 37.75 14.546875 
Q 39.546875 18.953125 39.546875 26.609375 
L 39.546875 52.296875 
L 48.34375 52.296875 
L 48.34375 0 
L 40.046875 0 
L 40.140625 7.71875 
Q 38.421875 4.734375 35.890625 2.6875 
Q 30.859375 -1.421875 23.6875 -1.421875 
Q 12.5 -1.421875 8.453125 6.0625 
Q 6.25 10.0625 6.25 16.75 
L 6.25 52.296875 
z
M 27.296875 53.5625 
z
" id="Helvetica-117"/>
      <path d="M 7.859375 71.734375 
L 17.671875 71.734375 
L 17.671875 42.09375 
L 54.984375 42.09375 
L 54.984375 71.734375 
L 64.796875 71.734375 
L 64.796875 0 
L 54.984375 0 
L 54.984375 33.546875 
L 17.671875 33.546875 
L 17.671875 0 
L 7.859375 0 
z
" id="Helvetica-72"/>
      <path d="M 24.90625 53.21875 
Q 31.0625 53.21875 35.640625 50.203125 
Q 38.140625 48.484375 40.71875 45.21875 
L 40.71875 51.8125 
L 48.828125 51.8125 
L 48.828125 4.25 
Q 48.828125 -5.71875 45.90625 -11.46875 
Q 40.4375 -22.125 25.25 -22.125 
Q 16.796875 -22.125 11.03125 -18.328125 
Q 5.28125 -14.546875 4.59375 -6.5 
L 13.53125 -6.5 
Q 14.15625 -10.015625 16.0625 -11.921875 
Q 19.046875 -14.84375 25.4375 -14.84375 
Q 35.546875 -14.84375 38.671875 -7.71875 
Q 40.53125 -3.515625 40.375 7.28125 
Q 37.75 3.265625 34.03125 1.3125 
Q 30.328125 -0.640625 24.21875 -0.640625 
Q 15.71875 -0.640625 9.34375 5.390625 
Q 2.984375 11.421875 2.984375 25.34375 
Q 2.984375 38.484375 9.40625 45.84375 
Q 15.828125 53.21875 24.90625 53.21875 
z
M 40.71875 26.375 
Q 40.71875 36.078125 36.71875 40.765625 
Q 32.71875 45.453125 26.515625 45.453125 
Q 17.234375 45.453125 13.8125 36.765625 
Q 12.015625 32.125 12.015625 24.609375 
Q 12.015625 15.765625 15.59375 11.15625 
Q 19.1875 6.546875 25.25 6.546875 
Q 34.71875 6.546875 38.578125 15.09375 
Q 40.71875 19.921875 40.71875 26.375 
z
M 25.921875 53.5625 
z
" id="Helvetica-103"/>
      <path d="M 6.453125 71.96875 
L 15.234375 71.96875 
L 15.234375 45.21875 
Q 18.359375 49.171875 20.84375 50.78125 
Q 25.09375 53.5625 31.453125 53.5625 
Q 42.828125 53.5625 46.875 45.609375 
Q 49.078125 41.265625 49.078125 33.546875 
L 49.078125 0 
L 40.046875 0 
L 40.046875 32.953125 
Q 40.046875 38.71875 38.578125 41.40625 
Q 36.1875 45.703125 29.59375 45.703125 
Q 24.125 45.703125 19.671875 41.9375 
Q 15.234375 38.1875 15.234375 27.734375 
L 15.234375 0 
L 6.453125 0 
z
" id="Helvetica-104"/>
     </defs>
     <g style="fill:#808080;" transform="translate(60.367141 350.708906)rotate(-90)scale(0.156 -0.156)">
      <use xlink:href="#Helvetica-83"/>
      <use x="66.699219" xlink:href="#Helvetica-116"/>
      <use x="94.482422" xlink:href="#Helvetica-121"/>
      <use x="144.482422" xlink:href="#Helvetica-108"/>
      <use x="166.699219" xlink:href="#Helvetica-117"/>
      <use x="222.314453" xlink:href="#Helvetica-115"/>
      <use x="272.314453" xlink:href="#Helvetica-32"/>
      <use x="300.097656" xlink:href="#Helvetica-72"/>
      <use x="372.314453" xlink:href="#Helvetica-101"/>
      <use x="427.929688" xlink:href="#Helvetica-105"/>
      <use x="450.146484" xlink:href="#Helvetica-103"/>
      <use x="505.761719" xlink:href="#Helvetica-104"/>
      <use x="561.376953" xlink:href="#Helvetica-116"/>
      <use x="589.160156" xlink:href="#Helvetica-32"/>
      <use x="616.943359" xlink:href="#Helvetica-40"/>
      <use x="650.244141" xlink:href="#Helvetica-110"/>
      <use x="705.859375" xlink:href="#Helvetica-109"/>
      <use x="789.160156" xlink:href="#Helvetica-41"/>
     </g>
    </g>
   </g>
   <g id="line2d_23">
    <path clip-path="url(#p666ed83de2)" d="M 90 479.524036 
L 90.723735 480.584411 
L 91.447471 479.502937 
L 92.894942 475.93737 
L 93.618677 476.89555 
L 94.342411 478.805082 
L 95.066148 477.619656 
L 95.789883 480.906157 
L 96.513619 479.060519 
L 97.237354 481.010077 
L 97.961088 480.099279 
L 98.684825 481.133303 
L 99.40856 483.411571 
L 100.856031 477.096974 
L 101.579766 479.555044 
L 102.3035 483.46384 
L 103.027235 484.232727 
L 103.750971 481.907022 
L 104.474706 478.65877 
L 105.198441 474.723954 
L 106.645912 481.012509 
L 107.369647 477.825711 
L 108.093385 475.168837 
L 108.817111 478.308193 
L 109.540855 475.812516 
L 110.264599 475.98757 
L 110.988324 473.664319 
L 111.712068 481.06454 
L 112.435793 477.28882 
L 113.159537 474.61263 
L 113.883263 481.689426 
L 114.607007 479.373198 
L 115.330732 480.473604 
L 116.054476 478.944736 
L 116.778201 478.847964 
L 118.225671 480.849652 
L 118.949415 478.959411 
L 119.67314 480.90897 
L 120.396884 481.911753 
L 121.12061 479.855756 
L 122.568097 482.498704 
L 124.015567 477.151602 
L 124.739292 478.076767 
L 125.463036 476.825323 
L 126.186762 472.530898 
L 126.910506 476.758921 
L 127.634231 476.830023 
L 128.357975 476.169963 
L 129.0817 470.065907 
L 129.805444 469.296978 
L 131.252914 480.438148 
L 131.976658 480.036202 
L 133.424127 472.737243 
L 134.147852 475.983359 
L 134.871596 476.998426 
L 135.595322 472.233077 
L 136.319066 473.988783 
L 137.042791 475.353979 
L 137.766535 478.625735 
L 138.490261 480.597067 
L 139.214005 480.097498 
L 139.93773 475.796405 
L 140.661474 475.604824 
L 141.385218 475.770033 
L 142.108943 473.425715 
L 142.832669 473.534392 
L 143.556413 473.908199 
L 144.280157 474.847421 
L 145.003882 476.418411 
L 145.727626 475.342207 
L 146.451351 478.914561 
L 147.175095 484.046522 
L 147.898821 480.804934 
L 148.622565 479.915204 
L 149.34629 475.261877 
L 150.79376 481.602403 
L 152.241229 471.949483 
L 152.964973 477.828748 
L 153.688717 481.479424 
L 154.412442 476.286339 
L 155.136186 478.541077 
L 155.859912 476.295787 
L 156.583656 474.807643 
L 157.307381 472.969375 
L 158.031125 473.397622 
L 158.75485 477.294131 
L 159.478594 477.800697 
L 160.20232 476.854416 
L 161.649789 480.866973 
L 163.097277 472.836854 
L 163.821003 473.714619 
L 164.544746 476.317373 
L 165.268472 475.269261 
L 165.992216 471.081592 
L 166.715941 475.309254 
L 167.439685 478.545898 
L 168.163411 477.968716 
L 168.887155 477.808036 
L 169.61088 473.322223 
L 170.334624 476.253679 
L 171.058368 475.432435 
L 171.782093 478.721398 
L 172.505837 478.50593 
L 173.229563 476.324554 
L 173.953288 476.506982 
L 174.677032 473.752827 
L 175.400776 473.565814 
L 176.124501 476.986819 
L 176.848245 473.830918 
L 177.571971 472.087124 
L 178.295715 475.437191 
L 179.01944 476.902121 
L 179.743184 476.073842 
L 180.46691 474.441373 
L 181.190654 471.699513 
L 181.914379 471.689839 
L 182.638123 475.797055 
L 183.361867 477.729764 
L 184.085592 476.452329 
L 184.809336 476.537467 
L 185.533062 475.716564 
L 186.256806 474.027199 
L 186.980531 475.811359 
L 187.704275 477.110183 
L 188.428 476.98005 
L 189.151744 473.234883 
L 189.87547 470.407686 
L 190.599214 476.230412 
L 191.322939 474.167038 
L 192.046683 478.037559 
L 192.770409 475.040036 
L 193.494153 475.432817 
L 194.217878 477.659113 
L 194.941622 477.496317 
L 195.665366 476.965843 
L 196.389091 473.208734 
L 197.112835 473.400639 
L 197.836561 473.944769 
L 198.560305 475.061336 
L 199.28403 476.772452 
L 200.007774 477.311666 
L 200.731499 475.974882 
L 201.455243 474.948189 
L 202.178969 474.858446 
L 202.902713 476.03401 
L 203.626457 477.550741 
L 204.350182 474.749361 
L 205.073926 474.167261 
L 205.797651 478.187385 
L 206.521377 477.735223 
L 207.245121 478.423694 
L 207.968865 482.060325 
L 208.69259 479.408018 
L 209.416334 477.953066 
L 210.14006 478.248925 
L 210.863804 476.689493 
L 211.587529 473.980823 
L 212.311273 478.601456 
L 213.034998 473.308631 
L 213.758742 476.178808 
L 214.482468 475.539822 
L 215.206212 473.585666 
L 215.929956 475.591945 
L 216.653681 474.93188 
L 217.377425 479.569027 
L 218.10115 475.480745 
L 218.824894 474.33096 
L 219.54862 477.593585 
L 220.272364 478.542285 
L 220.996089 480.477623 
L 221.719833 478.348225 
L 222.443577 475.729286 
L 223.167303 475.575452 
L 223.891028 478.346071 
L 224.614772 478.215944 
L 225.338497 475.868822 
L 226.062241 476.131484 
L 226.785967 477.588862 
L 227.509711 479.836749 
L 228.233455 480.7333 
L 228.95718 478.386349 
L 229.680924 476.571787 
L 230.404649 477.984215 
L 231.128375 475.185292 
L 231.852119 475.698703 
L 232.575863 476.472163 
L 233.299588 479.796598 
L 234.023332 476.623845 
L 234.747076 477.13497 
L 235.470801 476.692288 
L 236.194527 473.687758 
L 236.918271 474.896846 
L 237.642015 469.902351 
L 239.089484 474.364415 
L 240.536954 480.13269 
L 241.260679 477.778541 
L 241.984423 475.012627 
L 242.708167 476.910388 
L 243.431874 477.684024 
L 244.155618 477.764429 
L 244.879362 479.068171 
L 245.603106 479.437066 
L 246.326831 478.027241 
L 247.7743 477.46637 
L 249.22177 475.031958 
L 249.945514 474.371904 
L 250.669258 477.227511 
L 251.392983 477.826083 
L 252.116709 480.270103 
L 252.840453 477.830794 
L 253.564178 479.697474 
L 254.287922 478.377546 
L 255.011666 478.926428 
L 255.735391 478.876541 
L 256.459117 477.118862 
L 257.182861 478.919356 
L 257.906605 479.785347 
L 258.63033 474.769601 
L 259.354074 479.059076 
L 260.077799 481.697129 
L 261.525269 473.936713 
L 262.249013 473.378326 
L 262.972757 472.41537 
L 263.696482 475.576329 
L 264.420208 477.798053 
L 265.143952 478.011026 
L 265.867677 476.818577 
L 266.591421 475.855629 
L 268.03889 480.885543 
L 268.762616 478.59777 
L 269.48636 477.727179 
L 270.210104 479.118538 
L 270.933829 476.371418 
L 271.657573 479.132559 
L 272.381298 477.206669 
L 273.105042 479.028575 
L 273.828768 480.464532 
L 274.55253 480.613763 
L 275.276219 477.855228 
L 276.723781 478.330707 
L 277.447469 476.14933 
L 278.171157 480.800694 
L 278.894846 480.736937 
L 279.618719 477.978229 
L 280.342408 483.273131 
L 281.066096 481.103702 
L 281.789784 480.048567 
L 282.513658 482.724367 
L 283.237347 481.366339 
L 283.961035 477.3892 
L 284.684723 476.516153 
L 285.408597 476.740892 
L 286.132285 474.337226 
L 287.579662 470.260697 
L 288.303536 469.089492 
L 289.027224 472.879762 
L 289.750912 473.338739 
L 290.474601 469.707171 
L 291.198474 466.681209 
L 291.922163 468.065201 
L 292.645851 474.488794 
L 293.36954 479.35315 
L 294.093413 476.14264 
L 294.817102 457.503736 
L 296.264478 305.632055 
L 297.71204 88.887273 
L 298.435729 257.589483 
L 299.159417 394.536675 
L 299.883291 425.542195 
L 300.606979 430.740353 
L 301.330667 428.187437 
L 302.054541 426.467518 
L 302.778229 428.443056 
L 303.501918 432.519535 
L 304.225606 434.968306 
L 304.94948 433.797101 
L 305.673168 432.183758 
L 306.396857 429.822585 
L 307.120545 426.034554 
L 307.844419 418.981618 
L 308.568107 413.715137 
L 309.291795 417.354058 
L 311.463046 458.514425 
L 312.186734 459.226597 
L 312.910422 461.710827 
L 313.634296 456.247693 
L 314.357984 457.624825 
L 315.081673 455.547572 
L 315.805361 454.629572 
L 316.529235 464.332318 
L 317.252923 459.475124 
L 317.976612 459.018405 
L 318.7003 466.031104 
L 319.424174 464.791422 
L 320.147862 464.339619 
L 320.87155 465.371193 
L 321.595239 465.326392 
L 322.319112 458.606899 
L 323.042801 457.338773 
L 323.766489 453.669105 
L 324.490177 448.757479 
L 325.214051 454.024108 
L 325.937739 462.901049 
L 326.661428 467.356459 
L 327.385116 466.431265 
L 328.10899 466.521149 
L 328.832678 467.420327 
L 329.556367 468.094577 
L 330.280055 469.54248 
L 331.003929 470.117522 
L 331.727617 470.940844 
L 332.451305 470.351728 
L 333.174994 466.109628 
L 333.898867 465.118232 
L 334.622556 469.043354 
L 335.346244 468.707609 
L 336.069932 471.523008 
L 336.793806 468.553768 
L 337.517494 472.653955 
L 338.241183 469.223433 
L 338.964871 472.090977 
L 339.688745 467.550733 
L 340.412433 466.658715 
L 341.136122 470.075155 
L 341.85981 461.922143 
L 342.583684 441.342976 
L 343.307372 455.434583 
L 344.03106 467.352045 
L 344.754749 466.805585 
L 345.478622 467.292835 
L 346.202311 468.405009 
L 346.925999 466.06982 
L 347.649873 466.0389 
L 348.373561 466.81271 
L 349.097249 464.643105 
L 349.820938 465.057132 
L 350.544811 465.866407 
L 351.2685 467.110982 
L 351.992188 470.428034 
L 352.715877 466.394183 
L 353.439565 464.927119 
L 354.163439 466.905295 
L 354.887127 464.257559 
L 355.610815 468.956335 
L 356.334504 469.242883 
L 357.058377 466.555107 
L 357.782066 473.979395 
L 359.229628 468.73659 
L 359.953316 472.983392 
L 360.677004 472.59322 
L 361.400693 469.20748 
L 362.124567 471.582845 
L 362.848255 470.208135 
L 363.571943 471.381941 
L 365.019505 461.522869 
L 365.743194 464.53722 
L 366.466882 469.120098 
L 367.19057 465.204423 
L 367.914444 468.779427 
L 368.638132 477.403339 
L 369.361821 474.355954 
L 370.085509 470.331594 
L 370.809383 471.679932 
L 371.533071 469.529463 
L 372.25676 462.582928 
L 372.980448 461.868615 
L 373.704322 459.235276 
L 374.42801 464.589526 
L 375.151698 463.120351 
L 375.875387 463.084682 
L 376.59926 464.568229 
L 377.322949 464.75522 
L 378.046637 461.785977 
L 378.770325 464.641577 
L 379.494199 469.385481 
L 380.217887 475.073185 
L 380.941576 477.301927 
L 381.665264 474.680361 
L 382.389138 472.570093 
L 383.112826 475.402172 
L 383.836515 474.917175 
L 385.284077 472.702599 
L 386.007765 471.465206 
L 386.731453 473.92574 
L 387.455142 475.582061 
L 388.179015 473.450379 
L 388.902704 478.007101 
L 389.626392 481.610548 
L 390.35008 476.050647 
L 391.073954 468.872336 
L 391.797642 468.55537 
L 392.521331 472.669785 
L 393.245019 474.229013 
L 393.968893 478.033332 
L 394.692581 477.57924 
L 395.41627 474.184009 
L 396.140143 472.911315 
L 396.863832 467.564231 
L 397.58752 471.10587 
L 398.311208 471.591013 
L 399.034897 465.792137 
L 399.75877 463.362299 
L 400.482459 464.235321 
L 401.206147 472.11174 
L 401.930021 463.729234 
L 402.653709 456.912818 
L 403.377397 460.40739 
L 404.101086 449.831581 
L 404.824959 458.931171 
L 405.548648 471.861084 
L 406.272336 473.4556 
L 406.996025 465.222166 
L 407.719713 465.621978 
L 408.443587 468.380824 
L 409.167275 464.834063 
L 409.890963 457.746014 
L 410.614837 451.989455 
L 411.338525 457.989516 
L 412.062214 467.358815 
L 412.785902 467.498393 
L 413.509776 464.69947 
L 414.233464 467.006359 
L 414.957152 464.169508 
L 415.680841 462.406918 
L 416.404714 467.988387 
L 417.128403 465.071116 
L 417.852091 464.399112 
L 418.57578 455.323379 
L 419.299653 460.244626 
L 420.74703 466.91649 
L 421.470718 462.551309 
L 422.194592 462.650679 
L 422.91828 462.3504 
L 423.641969 464.844112 
L 424.365657 462.27012 
L 425.089531 467.217182 
L 425.813219 462.911168 
L 426.536907 461.425485 
L 427.260596 464.489338 
L 427.984469 459.052344 
L 428.708158 456.390736 
L 429.431846 462.054903 
L 430.155535 463.580946 
L 430.879408 461.931797 
L 431.603097 461.418526 
L 432.326785 457.223833 
L 433.050473 454.017727 
L 433.774347 454.587848 
L 434.498035 454.950076 
L 435.221724 454.592907 
L 435.945412 453.677188 
L 436.669286 453.490355 
L 437.392974 455.648163 
L 438.116662 449.231555 
L 438.840351 447.24666 
L 439.564224 451.368104 
L 440.287913 456.937631 
L 441.011601 456.767296 
L 441.735475 451.694823 
L 442.459163 448.583539 
L 443.182852 446.073273 
L 443.90654 441.471587 
L 444.630228 446.00705 
L 445.354102 448.067772 
L 446.07779 447.582769 
L 446.801479 445.323245 
L 447.525167 447.137969 
L 448.249041 446.480366 
L 448.972729 449.570209 
L 449.696417 451.95998 
L 450.420106 447.467134 
L 451.143979 444.717714 
L 451.867668 445.638161 
L 452.591356 445.460618 
L 453.315045 447.133456 
L 454.038918 447.102874 
L 454.762607 445.858469 
L 455.486295 446.790471 
L 456.210169 441.687283 
L 456.933857 439.988442 
L 457.657545 446.260669 
L 458.381234 447.647107 
L 459.104922 443.516175 
L 459.828796 448.818445 
L 460.552484 448.392457 
L 461.276172 450.831905 
L 462.000046 444.46026 
L 462.723735 444.119589 
L 463.447423 441.380022 
L 464.171111 436.124947 
L 464.894985 444.034389 
L 466.342362 440.012461 
L 467.06605 439.364165 
L 467.789738 433.196182 
L 468.513612 434.762429 
L 469.2373 437.083547 
L 469.960989 437.499864 
L 470.684862 433.790141 
L 471.408551 426.97864 
L 472.132239 422.999065 
L 472.855928 424.035377 
L 473.579801 428.419482 
L 474.30349 428.722182 
L 475.027178 424.174932 
L 475.750866 417.865081 
L 476.47474 417.164811 
L 477.922117 409.56769 
L 478.645805 404.814447 
L 479.369679 398.878445 
L 480.093367 391.285903 
L 480.817055 397.04471 
L 481.540744 394.801899 
L 482.264617 383.925655 
L 482.988306 393.855598 
L 483.711994 389.87356 
L 484.435683 387.45795 
L 485.159556 382.5818 
L 485.883245 385.518004 
L 486.606933 379.603227 
L 487.330621 371.476205 
L 488.054495 365.069085 
L 490.22556 356.53535 
L 490.949434 357.008385 
L 491.673122 357.685081 
L 493.120499 349.120467 
L 493.844372 350.248973 
L 494.568061 346.749623 
L 495.291749 341.916139 
L 496.015438 339.29948 
L 496.739311 342.715909 
L 497.463 343.508522 
L 498.186688 346.115841 
L 498.910376 342.484095 
L 499.63425 341.002983 
L 500.357938 342.869648 
L 501.081627 341.393446 
L 501.8055 335.582649 
L 502.529189 339.238051 
L 503.252877 334.286238 
L 503.976565 333.079573 
L 504.700254 339.037133 
L 505.424127 338.925796 
L 506.147816 337.683657 
L 506.871504 335.634854 
L 507.595193 340.570135 
L 508.319066 340.179971 
L 509.042755 337.442502 
L 509.766443 339.351866 
L 510.490317 339.57887 
L 511.214005 338.232965 
L 511.937693 340.144429 
L 512.661382 337.383421 
L 513.38507 331.215471 
L 514.108944 333.773247 
L 514.832632 337.920695 
L 515.55632 336.044492 
L 516.280194 333.569718 
L 517.003882 342.404333 
L 517.727571 334.759834 
L 518.451259 328.527943 
L 519.175133 327.150943 
L 520.62251 336.50126 
L 521.346198 344.495852 
L 522.070072 332.441245 
L 522.79376 329.223535 
L 523.517448 330.768704 
L 524.241137 324.01164 
L 524.96501 331.215736 
L 525.688699 325.421602 
L 526.412387 324.162931 
L 527.136075 334.578059 
L 527.859949 338.17185 
L 528.583637 329.150534 
L 529.307326 328.310693 
L 530.031014 324.189199 
L 530.754888 327.122956 
L 531.478576 327.986652 
L 532.202265 328.277598 
L 532.925953 328.405415 
L 533.649827 327.387866 
L 534.373515 328.497757 
L 535.097203 331.637276 
L 535.820892 330.449573 
L 536.544765 328.694014 
L 537.268454 333.068646 
L 537.992142 333.407168 
L 538.71583 325.885925 
L 539.439704 326.122616 
L 540.163392 319.580619 
L 540.887081 319.987629 
L 541.610769 327.031061 
L 542.334643 327.766938 
L 543.058331 328.128819 
L 543.78202 326.337949 
L 544.505708 327.225201 
L 545.229582 327.419209 
L 545.95327 325.479097 
L 546.676958 337.727712 
L 547.400832 333.431204 
L 548.12452 322.538462 
L 548.848209 318.826277 
L 549.571897 324.87831 
L 550.295585 334.68518 
L 551.019459 333.209011 
L 551.743147 326.936718 
L 552.466836 324.450174 
L 553.190524 326.037663 
L 553.914398 325.945486 
L 554.638086 324.0835 
L 555.361775 328.238105 
L 556.085648 331.261775 
L 556.809337 324.762627 
L 557.533025 322.884142 
L 558.256713 329.404665 
L 558.980402 329.475583 
L 559.704275 326.586773 
L 560.427964 318.831285 
L 561.151652 313.959896 
L 561.875526 325.921946 
L 562.599214 320.6695 
L 563.322903 332.738307 
L 564.046591 327.864455 
L 564.770465 323.776155 
L 565.494153 328.132009 
L 566.217841 330.514573 
L 566.94153 325.146262 
L 567.665218 316.36848 
L 568.389092 320.863739 
L 569.11278 321.746429 
L 570.560342 331.555729 
L 571.28403 328.25533 
L 572.007719 318.990132 
L 572.731407 318.516899 
L 573.455281 323.823913 
L 574.178969 322.144198 
L 574.902658 316.250498 
L 575.626346 315.223642 
L 576.35022 320.816874 
L 577.073908 327.789354 
L 577.797596 331.570144 
L 578.521285 329.618295 
L 579.245158 326.554373 
L 579.968847 330.697241 
L 580.692535 320.071756 
L 581.416223 322.906112 
L 582.140097 323.450247 
L 582.863785 329.272979 
L 583.587474 319.948947 
L 584.311162 326.322674 
L 585.035036 320.578232 
L 585.758724 320.206847 
L 586.482413 339.716458 
L 587.206101 331.773988 
L 587.929975 325.499595 
L 588.653663 316.59874 
L 589.377351 313.2912 
L 590.10104 323.983008 
L 590.824913 326.739206 
L 591.548602 325.603658 
L 592.27229 323.663546 
L 592.995978 325.795368 
L 593.719852 327.5604 
L 594.44354 324.472805 
L 595.167229 325.13545 
L 595.890917 331.648947 
L 596.614791 328.935184 
L 597.338479 319.412053 
L 598.062168 319.57075 
L 598.785856 319.46434 
L 600.233418 326.401329 
L 600.957106 327.993578 
L 601.68098 322.450187 
L 602.404668 315.667119 
L 603.128357 325.608849 
L 603.852045 326.780004 
L 604.575733 322.066982 
L 605.299607 327.333776 
L 606.023295 322.540347 
L 606.746984 321.265013 
L 607.470857 322.123981 
L 608.194546 314.576585 
L 608.918234 318.428309 
L 609.641923 324.75251 
L 610.365611 323.255065 
L 611.089485 328.069737 
L 611.813173 324.688931 
L 612.536861 319.604341 
L 613.26055 321.494893 
L 613.984423 320.217294 
L 614.708112 318.494913 
L 615.4318 317.583938 
L 616.155674 318.828492 
L 616.879362 326.816075 
L 617.60305 327.305773 
L 618.326739 317.278693 
L 619.050427 316.214246 
L 619.774301 317.957837 
L 620.497989 320.016443 
L 621.221678 327.800529 
L 621.945551 323.865869 
L 622.66924 327.921106 
L 624.116616 318.578113 
L 624.84049 324.346227 
L 625.564178 325.316349 
L 626.287867 329.355072 
L 627.011555 322.576583 
L 627.735243 321.09071 
L 628.459117 325.325954 
L 629.182805 324.973513 
L 629.906494 317.537271 
L 630.630367 319.044337 
L 631.354056 318.616234 
L 632.077744 319.489071 
L 632.801433 317.00499 
L 634.248995 324.067366 
L 634.972683 322.787469 
L 635.696371 319.576784 
L 636.420245 319.678599 
L 637.143933 322.252922 
L 637.867622 322.844303 
L 638.59131 322.099085 
L 639.315184 317.994106 
L 640.038872 317.130543 
L 640.76256 315.632933 
L 641.486249 318.294673 
L 642.210122 322.960466 
L 642.933811 322.910741 
L 643.657499 325.669418 
L 644.381188 319.380826 
L 645.105061 314.947161 
L 645.82875 323.159483 
L 646.552438 318.467521 
L 647.276126 315.777645 
L 648 316.772828 
L 648 316.772828 
" style="fill:none;stroke:#3572c6;stroke-linecap:square;stroke-width:1.5;"/>
   </g>
   <g id="patch_3">
    <path d="M 90 504 
L 90 69.12 
" style="fill:none;"/>
   </g>
   <g id="patch_4">
    <path d="M 648 504 
L 648 69.12 
" style="fill:none;"/>
   </g>
   <g id="patch_5">
    <path d="M 90 504 
L 648 504 
" style="fill:none;"/>
   </g>
   <g id="patch_6">
    <path d="M 90 69.12 
L 648 69.12 
" style="fill:none;"/>
   </g>
   <g id="text_14">
    <!-- AFM Step Analaysis -->
    <defs>
     <path d="M 44.4375 29.390625 
L 33.546875 61.078125 
L 21.96875 29.390625 
z
M 28.46875 71.734375 
L 39.453125 71.734375 
L 65.484375 0 
L 54.828125 0 
L 47.5625 21.484375 
L 19.1875 21.484375 
L 11.421875 0 
L 1.46875 0 
z
M 33.5 71.734375 
z
" id="Helvetica-65"/>
     <path d="M 8.546875 71.734375 
L 58.296875 71.734375 
L 58.296875 62.9375 
L 18.265625 62.9375 
L 18.265625 41.15625 
L 53.46875 41.15625 
L 53.46875 32.625 
L 18.265625 32.625 
L 18.265625 0 
L 8.546875 0 
z
" id="Helvetica-70"/>
     <path d="M 7.375 71.734375 
L 21.296875 71.734375 
L 41.890625 11.078125 
L 62.359375 71.734375 
L 76.125 71.734375 
L 76.125 0 
L 66.890625 0 
L 66.890625 42.328125 
Q 66.890625 44.53125 66.984375 49.609375 
Q 67.09375 54.6875 67.09375 60.5 
L 46.625 0 
L 37.015625 0 
L 16.40625 60.5 
L 16.40625 58.296875 
Q 16.40625 55.671875 16.53125 50.265625 
Q 16.65625 44.875 16.65625 42.328125 
L 16.65625 0 
L 7.375 0 
z
" id="Helvetica-77"/>
     <path d="M 28.515625 5.90625 
Q 34.671875 5.90625 38.75 11.0625 
Q 42.828125 16.21875 42.828125 26.46875 
Q 42.828125 32.71875 41.015625 37.203125 
Q 37.59375 45.84375 28.515625 45.84375 
Q 19.390625 45.84375 16.015625 36.71875 
Q 14.203125 31.84375 14.203125 24.3125 
Q 14.203125 18.265625 16.015625 14.015625 
Q 19.4375 5.90625 28.515625 5.90625 
z
M 5.765625 52.046875 
L 14.3125 52.046875 
L 14.3125 45.125 
Q 16.9375 48.6875 20.0625 50.640625 
Q 24.515625 53.5625 30.515625 53.5625 
Q 39.40625 53.5625 45.609375 46.75 
Q 51.8125 39.9375 51.8125 27.296875 
Q 51.8125 10.203125 42.875 2.875 
Q 37.203125 -1.765625 29.6875 -1.765625 
Q 23.78125 -1.765625 19.78125 0.828125 
Q 17.4375 2.296875 14.546875 5.859375 
L 14.546875 -20.84375 
L 5.765625 -20.84375 
z
" id="Helvetica-112"/>
    </defs>
    <g style="fill:#808080;" transform="translate(298.775625 63.12)scale(0.156 -0.156)">
     <use xlink:href="#Helvetica-65"/>
     <use x="66.699219" xlink:href="#Helvetica-70"/>
     <use x="127.783203" xlink:href="#Helvetica-77"/>
     <use x="211.083984" xlink:href="#Helvetica-32"/>
     <use x="238.867188" xlink:href="#Helvetica-83"/>
     <use x="305.566406" xlink:href="#Helvetica-116"/>
     <use x="333.349609" xlink:href="#Helvetica-101"/>
     <use x="388.964844" xlink:href="#Helvetica-112"/>
     <use x="444.580078" xlink:href="#Helvetica-32"/>
     <use x="472.363281" xlink:href="#Helvetica-65"/>
     <use x="539.0625" xlink:href="#Helvetica-110"/>
     <use x="594.677734" xlink:href="#Helvetica-97"/>
     <use x="650.292969" xlink:href="#Helvetica-108"/>
     <use x="672.509766" xlink:href="#Helvetica-97"/>
     <use x="728.125" xlink:href="#Helvetica-121"/>
     <use x="778.125" xlink:href="#Helvetica-115"/>
     <use x="828.125" xlink:href="#Helvetica-105"/>
     <use x="850.341797" xlink:href="#Helvetica-115"/>
    </g>
   </g>
   <g id="legend_1">
    <g id="patch_7">
     <path d="M 540.711 99.5595 
L 638.445 99.5595 
Q 641.175 99.5595 641.175 96.8295 
L 641.175 78.675 
Q 641.175 75.945 638.445 75.945 
L 540.711 75.945 
Q 537.981 75.945 537.981 78.675 
L 537.981 96.8295 
Q 537.981 99.5595 540.711 99.5595 
z
" style="fill:none;opacity:0;"/>
    </g>
    <g id="line2d_24">
     <path d="M 543.441 86.476828 
L 570.741 86.476828 
" style="fill:none;stroke:#3572c6;stroke-linecap:square;stroke-width:1.5;"/>
    </g>
    <g id="line2d_25"/>
    <g id="text_15">
     <!-- $TiO_x$ film -->
     <defs>
      <path d="M 5.90625 72.90625 
L 67.578125 72.90625 
L 66.015625 64.59375 
L 39.984375 64.59375 
L 27.484375 0 
L 17.578125 0 
L 30.078125 64.59375 
L 4.296875 64.59375 
z
" id="DejaVuSans-Oblique-84"/>
      <path d="M 18.3125 75.984375 
L 27.296875 75.984375 
L 25.09375 64.59375 
L 16.109375 64.59375 
z
M 14.203125 54.6875 
L 23.1875 54.6875 
L 12.5 0 
L 3.515625 0 
z
" id="DejaVuSans-Oblique-105"/>
      <path d="M 45.609375 66.21875 
Q 37.5 66.21875 31.296875 62.28125 
Q 25.09375 58.34375 20.515625 50.296875 
Q 17.578125 45.171875 16.03125 39.40625 
Q 14.5 33.640625 14.5 27.78125 
Q 14.5 17.625 19.359375 12.109375 
Q 24.21875 6.59375 33.109375 6.59375 
Q 41.109375 6.59375 47.375 10.5625 
Q 53.65625 14.546875 58.109375 22.40625 
Q 61.078125 27.6875 62.640625 33.46875 
Q 64.203125 39.265625 64.203125 45.015625 
Q 64.203125 55.125 59.3125 60.671875 
Q 54.4375 66.21875 45.609375 66.21875 
z
M 32.8125 -1.421875 
Q 19.390625 -1.421875 11.6875 6.53125 
Q 4 14.5 4 28.328125 
Q 4 36.234375 7 44.484375 
Q 10.015625 52.734375 15.28125 59.1875 
Q 21.484375 66.75 29.09375 70.484375 
Q 36.71875 74.21875 45.90625 74.21875 
Q 59.28125 74.21875 66.984375 66.328125 
Q 74.703125 58.453125 74.703125 44.828125 
Q 74.703125 36.421875 71.765625 28.3125 
Q 68.84375 20.21875 63.375 13.625 
Q 57.125 6 49.578125 2.28125 
Q 42.046875 -1.421875 32.8125 -1.421875 
z
" id="DejaVuSans-Oblique-79"/>
      <path d="M 60.015625 54.6875 
L 34.90625 27.875 
L 50.296875 0 
L 39.984375 0 
L 28.421875 21.6875 
L 8.296875 0 
L -2.59375 0 
L 24.3125 28.8125 
L 10.015625 54.6875 
L 20.3125 54.6875 
L 30.8125 34.90625 
L 49.125 54.6875 
z
" id="DejaVuSans-Oblique-120"/>
      <path d="M 8.640625 60.25 
Q 8.84375 65.71875 10.546875 68.265625 
Q 13.625 72.75 22.40625 72.75 
Q 23.25 72.75 24.125 72.703125 
Q 25 72.65625 26.125 72.5625 
L 26.125 64.546875 
Q 24.75 64.65625 24.140625 64.671875 
Q 23.53125 64.703125 23 64.703125 
Q 19 64.703125 18.21875 62.625 
Q 17.4375 60.546875 17.4375 52.046875 
L 26.125 52.046875 
L 26.125 45.125 
L 17.328125 45.125 
L 17.328125 0 
L 8.640625 0 
L 8.640625 45.125 
L 1.375 45.125 
L 1.375 52.046875 
L 8.640625 52.046875 
L 8.640625 60.25 
z
" id="Helvetica-102"/>
     </defs>
     <g style="fill:#808080;" transform="translate(581.661 91.254328)scale(0.1365 -0.1365)">
      <use transform="translate(0 0.015625)" xlink:href="#DejaVuSans-Oblique-84"/>
      <use transform="translate(61.083984 0.015625)" xlink:href="#DejaVuSans-Oblique-105"/>
      <use transform="translate(88.867188 0.015625)" xlink:href="#DejaVuSans-Oblique-79"/>
      <use transform="translate(167.578125 -16.390625)scale(0.7)" xlink:href="#DejaVuSans-Oblique-120"/>
      <use transform="translate(211.738281 0.015625)" xlink:href="#Helvetica-32"/>
      <use transform="translate(239.521484 0.015625)" xlink:href="#Helvetica-102"/>
      <use transform="translate(267.304688 0.015625)" xlink:href="#Helvetica-105"/>
      <use transform="translate(289.521484 0.015625)" xlink:href="#Helvetica-108"/>
      <use transform="translate(311.738281 0.015625)" xlink:href="#Helvetica-109"/>
     </g>
    </g>
   </g>
  </g>
 </g>
 <defs>
  <clipPath id="p666ed83de2">
   <rect height="434.88" width="558" x="90" y="69.12"/>
  </clipPath>
 </defs>
</svg>
